<svg id="Capa_1" data-name="Capa 1" xmlns="http://www.w3.org/2000/svg" viewBox="0 0 400 200"><title>Encantamientos</title><polygon points="95.202 93.545 95.202 93.533 96.414 93.533 95.202 93.545" fill="#e6007e"/><path d="M73.9847,148.4238a49.5059,49.5059,0,1,1,49.5062-49.5056A49.5618,49.5618,0,0,1,73.9847,148.4238Zm0-96.5874a47.0815,47.0815,0,1,0,47.0818,47.0818A47.1347,47.1347,0,0,0,73.9847,51.8364Z" fill="#e6007e"/><path d="M73.9847,150.2628A51.345,51.345,0,1,1,125.33,98.9182,51.403,51.403,0,0,1,73.9847,150.2628Zm0-102.0838a50.7389,50.7389,0,1,0,50.7391,50.7392A50.7963,50.7963,0,0,0,73.9847,48.179Z" fill="#e6007e"/><path d="M73.9847,153.2667a54.3489,54.3489,0,1,1,54.3492-54.3485A54.41,54.41,0,0,1,73.9847,153.2667Zm0-108.0916a53.7428,53.7428,0,1,0,53.743,53.7431A53.8035,53.8035,0,0,0,73.9847,45.1751Z" fill="#e6007e"/><path d="M73.9847,155.5574a56.6393,56.6393,0,1,1,56.6392-56.6392A56.7031,56.7031,0,0,1,73.9847,155.5574Zm0-112.0662a55.427,55.427,0,1,0,55.427,55.427A55.49,55.49,0,0,0,73.9847,43.4912Z" fill="#e6007e"/><path d="M73.9847,163.9091a64.9913,64.9913,0,1,1,64.9916-64.9909A65.0645,65.0645,0,0,1,73.9847,163.9091Zm0-128.77a63.7791,63.7791,0,1,0,63.7794,63.7794A63.8513,63.8513,0,0,0,73.9847,35.1388Z" fill="#e6007e"/><path d="M73.9847,167.6014a68.6836,68.6836,0,1,1,68.6839-68.6832A68.7607,68.7607,0,0,1,73.9847,167.6014Zm0-134.9427a66.2592,66.2592,0,1,0,66.2594,66.26A66.334,66.334,0,0,0,73.9847,32.6587Z" fill="#e6007e"/><polygon points="111.172 119.789 88.862 119.789 88.862 119.183 110.096 119.183 87.633 82.199 88.151 81.884 111.172 119.789" fill="#e6007e"/><rect x="73.6817" y="44.8721" width="0.6061" height="3.0039" fill="#e6007e"/><rect x="73.6817" y="44.8721" width="0.6061" height="3.0039" fill="#e6007e"/><rect x="75.8836" y="46.1813" width="3.0037" height="0.6062" transform="translate(26.0106 120.7133) rotate(-86.305)" fill="#e6007e"/><rect x="79.2699" y="46.5112" width="3.0042" height="0.6064" transform="translate(23.9413 120.8818) rotate(-82.5975)" fill="#e6007e"/><rect x="82.6281" y="47.0602" width="3.0036" height="0.6057" transform="matrix(0.1935, -0.9811, 0.9811, 0.1935, 21.384, 120.7392)" fill="#e6007e"/><rect x="85.944" y="47.8247" width="3.0035" height="0.6062" transform="translate(18.5476 120.3504) rotate(-75.1767)" fill="#e6007e"/><rect x="89.2026" y="48.8028" width="3.0038" height="0.6057" transform="translate(15.2614 119.4406) rotate(-71.4234)" fill="#e6007e"/><rect x="92.3919" y="49.989" width="3.0036" height="0.6063" transform="translate(11.7836 118.1394) rotate(-67.7416)" fill="#e6007e"/><rect x="95.4973" y="51.3797" width="3.0035" height="0.6057" transform="translate(8.066 116.2644) rotate(-64.0359)" fill="#e6007e"/><rect x="98.5061" y="52.9676" width="3.0038" height="0.6066" transform="translate(4.1673 113.7188) rotate(-60.2829)" fill="#e6007e"/><rect x="101.4059" y="54.7484" width="3.0038" height="0.6058" transform="translate(0.2592 110.5844) rotate(-56.5584)" fill="#e6007e"/><rect x="104.1845" y="56.7123" width="3.0038" height="0.6059" transform="translate(-3.5725 106.8435) rotate(-52.8614)" fill="#e6007e"/><polygon points="107.579 60.489 107.121 60.093 109.085 57.82 109.543 58.217 107.579 60.489" fill="#e6007e"/><rect x="109.3316" y="61.158" width="3.0035" height="0.6061" transform="translate(-10.7037 97.3809) rotate(-45.4748)" fill="#e6007e"/><rect x="111.6787" y="63.6215" width="3.0037" height="0.6062" transform="translate(-13.8227 91.6076) rotate(-41.7543)" fill="#e6007e"/><rect x="113.8613" y="66.2321" width="3.0038" height="0.6055" transform="translate(-16.5031 85.1582) rotate(-38.0125)" fill="#e6007e"/><rect x="115.8705" y="68.9774" width="3.0037" height="0.6065" transform="matrix(0.8257, -0.5641, 0.5641, 0.8257, -18.6237, 78.2889)" fill="#e6007e"/><rect x="117.6979" y="71.8478" width="3.0041" height="0.6066" transform="translate(-20.1288 70.7705) rotate(-30.6186)" fill="#e6007e"/><rect x="119.3353" y="74.8301" width="3.0037" height="0.6067" transform="translate(-20.9213 62.8377) rotate(-26.915)" fill="#e6007e"/><rect x="120.7762" y="77.9124" width="3.0043" height="0.6067" transform="translate(-20.93 54.5286) rotate(-23.2133)" fill="#e6007e"/><rect x="122.0151" y="81.0818" width="3.0038" height="0.6066" transform="translate(-20.0796 45.8886) rotate(-19.4959)" fill="#e6007e"/><rect x="123.0459" y="84.3244" width="3.0042" height="0.6064" transform="translate(-18.2916 36.9739) rotate(-15.7457)" fill="#e6007e"/><rect x="123.8649" y="87.6268" width="3.0041" height="0.6065" transform="translate(-15.6003 28.1237) rotate(-12.0557)" fill="#e6007e"/><polygon points="124.528 91.797 124.44 91.197 127.412 90.76 127.5 91.36 124.528 91.797" fill="#e6007e"/><rect x="124.8538" y="94.3565" width="3.0038" height="0.6058" transform="translate(-7.3429 10.69) rotate(-4.7079)" fill="#e6007e"/><rect x="125.0196" y="97.7547" width="3.0037" height="0.6062" transform="translate(-1.5165 1.9886) rotate(-0.8952)" fill="#e6007e"/><rect x="126.1645" y="99.9578" width="0.6056" height="3.0039" transform="translate(18.9965 222.8603) rotate(-87.2216)" fill="#e6007e"/><rect x="125.8894" y="103.3493" width="0.6065" height="3.0042" transform="translate(7.7427 218.3767) rotate(-83.5065)" fill="#e6007e"/><rect x="125.3959" y="106.7162" width="0.6063" height="3.004" transform="translate(-3.0531 212.7853) rotate(-79.8082)" fill="#e6007e"/><rect x="124.6857" y="110.0434" width="0.6061" height="3.0042" transform="translate(-13.3106 206.0859) rotate(-76.1034)" fill="#e6007e"/><rect x="123.7614" y="113.3186" width="0.6061" height="3.0034" transform="matrix(0.3027, -0.9531, 0.9531, 0.3027, -22.9248, 198.3058)" fill="#e6007e"/><rect x="122.627" y="116.5263" width="0.6061" height="3.0035" transform="translate(-31.7167 189.6297) rotate(-68.6788)" fill="#e6007e"/><rect x="121.2877" y="119.654" width="0.6064" height="3.0039" transform="translate(-39.6415 180.0392) rotate(-64.9599)" fill="#e6007e"/><rect x="119.7486" y="122.6885" width="0.6061" height="3.0037" transform="translate(-46.5744 169.7031) rotate(-61.2481)" fill="#e6007e"/><rect x="118.0163" y="125.6168" width="0.6062" height="3.0039" transform="translate(-52.4438 158.7192) rotate(-57.5375)" fill="#e6007e"/><rect x="116.0985" y="128.4275" width="0.6057" height="3.0039" transform="translate(-57.1841 147.2217) rotate(-53.8323)" fill="#e6007e"/><rect x="114.0022" y="131.1074" width="0.606" height="3.0037" transform="translate(-60.7483 135.288) rotate(-50.1164)" fill="#e6007e"/><rect x="111.7368" y="133.6464" width="0.6062" height="3.0043" transform="translate(-63.0968 123.0988) rotate(-46.405)" fill="#e6007e"/><rect x="109.3124" y="136.0338" width="0.6057" height="3.0038" transform="translate(-64.2101 110.7715) rotate(-42.6922)" fill="#e6007e"/><rect x="106.738" y="138.2589" width="0.606" height="3.0036" transform="translate(-64.0947 98.4887) rotate(-38.9931)" fill="#e6007e"/><rect x="104.0252" y="140.3124" width="0.6063" height="3.0044" transform="matrix(0.8164, -0.5774, 0.5774, 0.8164, -62.7388, 86.2776)" fill="#e6007e"/><rect x="101.1855" y="142.1866" width="0.6058" height="3.004" transform="translate(-60.2063 74.3983) rotate(-31.5698)" fill="#e6007e"/><rect x="98.2298" y="143.8726" width="0.6063" height="3.0039" transform="translate(-56.5041 62.8759) rotate(-27.8527)" fill="#e6007e"/><rect x="95.1721" y="145.3642" width="0.6057" height="3.0039" transform="translate(-51.7239 51.9049) rotate(-24.1459)" fill="#e6007e"/><rect x="92.0234" y="146.6547" width="0.6065" height="3.0036" transform="translate(-45.9242 41.5673) rotate(-20.4384)" fill="#e6007e"/><rect x="88.7985" y="147.7388" width="0.6056" height="3.0037" transform="translate(-39.1705 31.9455) rotate(-16.7209)" fill="#e6007e"/><rect x="85.5093" y="148.6113" width="0.6062" height="3.0041" transform="translate(-31.6019 23.1816) rotate(-13.0149)" fill="#e6007e"/><rect x="82.1715" y="149.2694" width="0.6058" height="3.0037" transform="translate(-23.2787 15.3081) rotate(-9.299)" fill="#e6007e"/><rect x="78.7972" y="149.7105" width="0.6066" height="3.0034" transform="translate(-14.3458 8.4193) rotate(-5.587)" fill="#e6007e"/><rect x="75.4016" y="149.9317" width="0.6064" height="3.0037" transform="translate(-4.9131 2.5574) rotate(-1.8745)" fill="#e6007e"/><rect x="70.8007" y="151.1316" width="3.0037" height="0.6064" transform="translate(-81.3167 218.972) rotate(-88.2101)" fill="#e6007e"/><rect x="67.4052" y="150.9127" width="3.0038" height="0.6066" transform="translate(-88.3108 205.04) rotate(-84.4007)" fill="#e6007e"/><rect x="64.031" y="150.4746" width="3.0039" height="0.6057" transform="translate(-93.7987 191.297) rotate(-80.777)" fill="#e6007e"/><rect x="60.6923" y="149.8185" width="3.0035" height="0.6062" transform="translate(-98.0603 177.0136) rotate(-77.0222)" fill="#e6007e"/><rect x="57.4027" y="148.9484" width="3.0041" height="0.6056" transform="translate(-100.9781 162.7848) rotate(-73.3008)" fill="#e6007e"/><rect x="54.177" y="147.8665" width="3.0039" height="0.606" transform="matrix(0.3477, -0.9376, 0.9376, 0.3477, -102.6053, 148.8565)" fill="#e6007e"/><rect x="51.0274" y="146.5787" width="3.004" height="0.6057" transform="translate(-102.9963 134.828) rotate(-65.8897)" fill="#e6007e"/><rect x="47.9678" y="145.0892" width="3.0041" height="0.6063" transform="translate(-102.2069 121.3014) rotate(-62.1841)" fill="#e6007e"/><polygon points="45.986 145.147 45.47 144.83 47.041 142.269 47.557 142.586 45.986 145.147" fill="#e6007e"/><rect x="42.1702" y="141.5333" width="3.0038" height="0.6057" transform="translate(-97.3928 95.7336) rotate(-54.7878)" fill="#e6007e"/><rect x="39.4558" y="139.4816" width="3.0039" height="0.606" transform="translate(-93.4759 83.7054) rotate(-51.0256)" fill="#e6007e"/><rect x="36.8801" y="137.2579" width="3.0038" height="0.6066" transform="translate(-88.8254 72.6418) rotate(-47.3728)" fill="#e6007e"/><polygon points="35.078 136.432 34.66 135.993 36.834 133.92 37.252 134.359 35.078 136.432" fill="#e6007e"/><rect x="32.1866" y="132.3352" width="3.0039" height="0.6067" transform="translate(-77.2852 52.559) rotate(-39.9344)" fill="#e6007e"/><rect x="30.0888" y="129.6569" width="3.004" height="0.606" transform="translate(-70.688 43.7822) rotate(-36.2207)" fill="#e6007e"/><rect x="28.1687" y="126.8479" width="3.0039" height="0.6062" transform="matrix(0.8436, -0.537, 0.537, 0.8436, -63.6393, 35.822)" fill="#e6007e"/><rect x="26.4344" y="123.9205" width="3.0035" height="0.6066" transform="translate(-56.4159 28.8471) rotate(-28.8157)" fill="#e6007e"/><rect x="24.8927" y="120.8868" width="3.0041" height="0.6064" transform="translate(-48.8546 22.5937) rotate(-25.0642)" fill="#e6007e"/><rect x="23.5512" y="117.76" width="3.004" height="0.6065" transform="translate(-41.3633 17.2891) rotate(-21.4068)" fill="#e6007e"/><rect x="22.4148" y="114.553" width="3.0039" height="0.6061" transform="translate(-33.647 12.6292) rotate(-17.621)" fill="#e6007e"/><rect x="21.4883" y="111.2792" width="3.0037" height="0.6061" transform="translate(-26.1329 8.7909) rotate(-13.9005)" fill="#e6007e"/><rect x="20.7754" y="107.952" width="3.0037" height="0.6063" transform="translate(-18.8806 5.6808) rotate(-10.2348)" fill="#e6007e"/><rect x="20.2793" y="104.5858" width="3.0039" height="0.6065" transform="translate(-11.7351 3.1404) rotate(-6.5008)" fill="#e6007e"/><rect x="20.0025" y="101.1948" width="3.004" height="0.6056" transform="translate(-4.934 1.1721) rotate(-2.8009)" fill="#e6007e"/><rect x="21.1443" y="96.5939" width="0.6062" height="3.0037" transform="translate(-76.9703 118.0134) rotate(-89.108)" fill="#e6007e"/><rect x="21.3082" y="93.1949" width="0.6057" height="3.0041" transform="matrix(0.0802, -0.9968, 0.9968, 0.0802, -74.514, 108.6445)" fill="#e6007e"/><rect x="21.6907" y="89.8142" width="0.6065" height="3.0036" transform="translate(-71.5448 99.8518) rotate(-81.6719)" fill="#e6007e"/><rect x="22.2915" y="86.4653" width="0.6065" height="3.0035" transform="translate(-68.1492 91.7423) rotate(-77.977)" fill="#e6007e"/><rect x="23.1084" y="83.162" width="0.6064" height="3.004" transform="translate(-64.4286 84.2439) rotate(-74.2686)" fill="#e6007e"/><polygon points="25.756 82.206 22.923 81.206 23.124 80.634 25.957 81.635 25.756 82.206" fill="#e6007e"/><rect x="25.3734" y="76.7487" width="0.6062" height="3.0039" transform="translate(-56.3665 71.0819) rotate(-66.84)" fill="#e6007e"/><polygon points="28.318 76.117 25.639 74.759 25.912 74.218 28.592 75.576 28.318 76.117" fill="#e6007e"/><polygon points="29.89 73.209 27.304 71.681 27.611 71.158 30.197 72.687 29.89 73.209" fill="#e6007e"/><rect x="30.2731" y="67.8101" width="0.6058" height="3.0039" transform="translate(-43.9158 55.5271) rotate(-55.7119)" fill="#e6007e"/><rect x="32.2804" y="65.0624" width="0.6055" height="3.004" transform="translate(-39.929 51.252) rotate(-51.9943)" fill="#e6007e"/><rect x="34.4609" y="62.4511" width="0.6062" height="3.0038" transform="translate(-36.1069 47.3446) rotate(-48.283)" fill="#e6007e"/><rect x="36.8061" y="59.9857" width="0.6061" height="3.0039" transform="translate(-32.4801 43.7351) rotate(-44.5769)" fill="#e6007e"/><rect x="39.3064" y="57.6777" width="0.6059" height="3.0037" transform="translate(-29.0639 40.3355) rotate(-40.8609)" fill="#e6007e"/><rect x="41.9501" y="55.5358" width="0.6059" height="3.0039" transform="matrix(0.797, -0.6039, 0.6039, 0.797, -25.8711, 37.0947)" fill="#e6007e"/><rect x="44.7274" y="53.57" width="0.6058" height="3.0041" transform="translate(-22.895 33.9342) rotate(-33.4427)" fill="#e6007e"/><rect x="47.6255" y="51.7878" width="0.6066" height="3.004" transform="translate(-20.1193 30.7857) rotate(-29.7323)" fill="#e6007e"/><rect x="50.6335" y="50.1973" width="0.6062" height="3.0035" transform="translate(-17.5166 27.5849) rotate(-26.0197)" fill="#e6007e"/><rect x="53.738" y="48.8042" width="0.6063" height="3.0043" transform="translate(-15.0474 24.269) rotate(-22.3003)" fill="#e6007e"/><rect x="56.9263" y="47.6153" width="0.6057" height="3.0038" transform="translate(-12.6733 20.8095) rotate(-18.592)" fill="#e6007e"/><rect x="60.1843" y="46.6352" width="0.6065" height="3.0041" transform="matrix(0.9664, -0.2569, 0.2569, 0.9664, -10.3372, 17.1568)" fill="#e6007e"/><rect x="63.4996" y="45.8682" width="0.6057" height="3.004" transform="translate(-7.9669 13.255) rotate(-11.1682)" fill="#e6007e"/><polygon points="67.055 48.348 66.665 45.369 67.266 45.291 67.656 48.27 67.055 48.348" fill="#e6007e"/><rect x="70.2432" y="44.9852" width="0.6062" height="3.0032" transform="translate(-2.8906 4.7157) rotate(-3.7517)" fill="#e6007e"/><polygon points="51.787 92.06 50.227 91.127 73.756 51.702 87.34 74.213 85.783 75.153 73.765 55.236 51.787 92.06" fill="#e6007e"/><polygon points="76.5 123.632 30.835 123.632 45.693 98.728 47.254 99.66 34.037 121.814 76.5 121.814 76.5 123.632" fill="#e6007e"/><polygon points="117.144 123.632 86.901 123.632 86.901 121.814 113.923 121.814 90.22 82.511 91.777 81.571 117.144 123.632" fill="#e6007e"/><polygon points="101.796 99.412 100.76 98.782 115.061 75.289 70.585 75.289 70.585 74.077 117.218 74.077 101.796 99.412" fill="#e6007e"/><polygon points="73.586 145.753 60.015 123.033 61.056 122.412 73.596 143.406 96.141 106.358 97.177 106.988 73.586 145.753" fill="#e6007e"/><polygon points="54.972 114.596 30.762 74.077 61.105 74.077 61.105 75.289 32.898 75.289 56.013 113.975 54.972 114.596" fill="#e6007e"/><polygon points="54.176 96.769 53.658 96.455 74.088 62.627 81.233 74.526 80.713 74.839 74.087 63.803 54.176 96.769" fill="#e6007e"/><polygon points="79.955 117.608 40.882 117.608 49.136 103.935 49.655 104.248 41.956 117.001 79.955 117.001 79.955 117.608" fill="#e6007e"/><polygon points="106.926 117.608 90.669 117.608 90.669 117.001 105.855 117.001 84.966 82.197 85.485 81.885 106.926 117.608" fill="#e6007e"/><polygon points="81.894 115.195 45.105 115.195 50.35 106.506 51.907 107.446 48.326 113.377 81.894 113.377 81.894 115.195" fill="#e6007e"/><polygon points="102.864 115.195 92.027 115.195 92.027 113.377 99.643 113.377 81.031 82.511 82.588 81.571 102.864 115.195" fill="#e6007e"/><polygon points="56.393 99.991 54.835 99.052 73.979 67.299 78.151 74.213 76.594 75.153 73.979 70.818 56.393 99.991" fill="#e6007e"/><polygon points="58.846 114.989 36.759 77.18 58.778 77.18 58.778 79.968 41.616 79.968 61.254 113.583 58.846 114.989" fill="#e6007e"/><polygon points="73.026 139.276 63.768 123.426 66.176 122.02 73.09 133.857 92.903 101.687 95.276 103.149 73.026 139.276" fill="#e6007e"/><polygon points="99.919 95.61 97.545 94.147 106.285 79.968 68.245 79.968 68.245 77.18 111.278 77.18 99.919 95.61" fill="#e6007e"/><polygon points="72.597 129.947 68.57 123.028 69.618 122.418 72.645 127.621 91.348 98.37 92.37 99.024 72.597 129.947" fill="#e6007e"/><polygon points="63.673 114.591 44.402 81.435 56.717 81.435 56.717 82.647 46.509 82.647 64.72 113.981 63.673 114.591" fill="#e6007e"/><polygon points="97.097 91.628 96.076 90.976 101.396 82.647 66.148 82.647 66.148 81.435 103.608 81.435 97.097 91.628" fill="#e6007e"/><path d="M70.0124,102.9033a6.6147,6.6147,0,0,1-2.3881-3.0427h-.0121a6.5226,6.5226,0,0,1-.4364-2.34,6.39,6.39,0,0,1,.2424-1.7456,6.5542,6.5542,0,0,1,2.4487-3.5033,6.6321,6.6321,0,0,1,2.9457-1.2607,6.391,6.391,0,0,1,2.3517,0A6.743,6.743,0,0,1,78.5949,92.66v.0121a6.4373,6.4373,0,0,1,2.0971,3.6852,6.114,6.114,0,0,1,.1091,1.1637,6.3875,6.3875,0,0,1-.6788,2.873,6.5726,6.5726,0,0,1-2.6063,2.7881,6.8137,6.8137,0,0,1-3.5276.97" fill="#e6007e"/><path d="M73.9883,104.8307a15.794,15.794,0,0,1-4.6885-.7062,14.471,14.471,0,0,1-5.2981-2.9346,13.2155,13.2155,0,0,1-2.45-2.8062l-.0971-.15V96.9548l.0965-.15A13.1592,13.1592,0,0,1,63.8123,94.16a14.44,14.44,0,0,1,5.4384-3.0856l.0988-.0272a15.1764,15.1764,0,0,1,3.42-.64,13.2451,13.2451,0,0,1,2.4517.0012,15.5045,15.5045,0,0,1,4.2274.92,14.2477,14.2477,0,0,1,5.478,3.5946,12.4877,12.4877,0,0,1,1.4881,1.8829l.0959.15v1.2773l-.0965.15a13.1465,13.1465,0,0,1-3.265,3.4561,14.3078,14.3078,0,0,1-5.1181,2.4629A15.3022,15.3022,0,0,1,73.9883,104.8307Zm0-1.2122a14.0928,14.0928,0,0,0,3.7307-.4878,13.132,13.132,0,0,0,4.7033-2.2616,11.9748,11.9748,0,0,0,2.876-2.9951v-.56a11.2187,11.2187,0,0,0-1.25-1.5555l-.0047-.0047a13.0262,13.0262,0,0,0-5.0152-3.2881,14.3438,14.3438,0,0,0-3.91-.8494,11.8876,11.8876,0,0,0-2.2486-.0011,14.02,14.02,0,0,0-3.2437.6167l-.1024.0284a13.208,13.208,0,0,0-4.8962,2.7986,11.9309,11.9309,0,0,0-1.961,2.2557v.5593a12.045,12.045,0,0,0,2.1309,2.402,13.2716,13.2716,0,0,0,4.86,2.6908c.0852.0266.1711.0521.2563.0769l.4487-.6345a6.2439,6.2439,0,0,0,3.626,1.1371Z" fill="#e6007e"/><polygon points="74.288 114.286 73.682 114.286 73.682 104.225 74.288 104.152 74.288 114.286" fill="#e6007e"/><polygon points="73.682 90.963 73.682 82.041 74.288 82.041 74.288 90.902 73.682 90.963" fill="#e6007e"/><rect x="80.2525" y="102.8706" width="0.6059" height="9.339" transform="translate(-47.1212 65.6744) rotate(-35.0096)" fill="#e6007e"/><polygon points="69.439 91.957 69.281 91.957 69.179 91.828 64.488 85.124 64.984 84.776 69.675 91.48 69.433 91.65 69.439 91.957" fill="#e6007e"/><rect x="85.6589" y="99.1286" width="0.6059" height="6.7612" transform="matrix(0.3425, -0.9395, 0.9395, 0.3425, -39.7881, 148.166)" fill="#e6007e"/><rect x="61.2207" y="90.7652" width="0.6059" height="5.7291" transform="translate(-47.5204 119.3413) rotate(-69.9587)" fill="#e6007e"/><rect x="84.3933" y="94.3566" width="5.2461" height="0.6068" transform="matrix(0.9657, -0.2595, 0.2595, 0.9657, -21.5822, 25.8217)" fill="#e6007e"/><rect x="57.2912" y="101.3637" width="7.2279" height="0.6065" transform="translate(-24.1393 19.1258) rotate(-14.9314)" fill="#e6007e"/><polygon points="67.621 100.164 67.609 100.164 67.609 99.557 67.621 100.164" fill="#e6007e"/><polygon points="78.288 92.672 78.288 92.66 78.895 92.66 78.288 92.672" fill="#e6007e"/><rect x="77.8166" y="88.5508" width="7.95" height="0.6058" transform="translate(-38.8495 94.3825) rotate(-49.9937)" fill="#e6007e"/><rect x="61.0841" y="107.1523" width="10.2129" height="0.6058" transform="translate(-58.6694 89.0756) rotate(-49.9937)" fill="#e6007e"/><polygon points="52.781 94.358 52.264 94.041 74.101 58.342 83.947 74.525 83.43 74.84 74.1 59.506 52.781 94.358" fill="#e6007e"/><polygon points="78.537 119.796 36.499 119.796 47.818 101.508 48.333 101.826 37.587 119.19 78.537 119.19 78.537 119.796" fill="#e6007e"/><path d="M76.8314,101.4237a9.2181,9.2181,0,0,1-.8284.5021,4.5929,4.5929,0,0,1-1.9769.4393,4.6462,4.6462,0,0,1-3.2791-7.9357,4.5364,4.5364,0,0,1,3.3168-1.3525,4.7478,4.7478,0,0,1,2.7676.9351l-1.5564-.3138a4.0227,4.0227,0,0,0-2.8618,6.8626,3.8275,3.8275,0,0,0,2.8178,1.183Zm-1.77-4.2361h1.3493l.4205-1.28.4142,1.28h1.3493l-1.092.7907.4142,1.2866-1.0857-.7908-1.092.7908.4142-1.2866Z" fill="#fff"/><path d="M70.7642,37.9626h2.46l.76-2.3411.76,2.3411h2.46L75.2172,39.41l.76,2.3411-1.9929-1.4477L71.992,41.7513l.76-2.3411Z" fill="#e6007e"/><path d="M134.94,95.6974v2.46l2.341.7605-2.341.76v2.46l-1.4477-1.9882-2.341.76,1.4477-1.9929-1.4477-1.9928,2.341.76Z" fill="#e6007e"/><path d="M77.2055,159.8735h-2.46l-.76,2.341-.76-2.341h-2.46l1.9883-1.4477-.76-2.341,1.9928,1.4477,1.9929-1.4477-.76,2.341Z" fill="#e6007e"/><path d="M13.0294,102.1386v-2.46l-2.341-.76,2.341-.7605v-2.46l1.4477,1.9883,2.341-.76L15.37,98.918l1.4477,1.9929-2.341-.76Z" fill="#e6007e"/><circle cx="116.575" cy="56.3278" r="2.1013" fill="#e6007e"/><path d="M126.1266,71.1656a2.4207,2.4207,0,0,1-.6244-.0823,2.39,2.39,0,1,1,.6244.0823Zm-.0071-4.2037a1.7983,1.7983,0,1,0,1.56.8973A1.7892,1.7892,0,0,0,126.12,66.9619Z" fill="#e6007e"/><path d="M132.1351,85.64a2.4139,2.4139,0,1,1,.63-.0841h0A2.4109,2.4109,0,0,1,132.1351,85.64Zm.0035-4.2037a1.7984,1.7984,0,1,0,.4688,3.5348h0a1.7984,1.7984,0,0,0-.4688-3.5348Z" fill="#e6007e"/><path d="M132.2132,116.7232a2.4043,2.4043,0,1,1,2.3256-1.7893A2.3943,2.3943,0,0,1,132.2132,116.7232Zm.0012-4.2025a1.7987,1.7987,0,1,0,.4593.06A1.7807,1.7807,0,0,0,132.2144,112.5207Z" fill="#e6007e"/><path d="M126.264,131.2266a2.404,2.404,0,1,1,2.0912-1.21A2.3871,2.3871,0,0,1,126.264,131.2266Zm.0071-4.2031a1.8163,1.8163,0,0,0-.4753.0639,1.7984,1.7984,0,0,0-.42,3.2963h0a1.7985,1.7985,0,1,0,.8956-3.36Z" fill="#e6007e"/><circle cx="116.7811" cy="141.3012" r="2.1013" fill="#e6007e"/><path d="M104.4,153.3141a2.416,2.416,0,0,1-.6133-.0793,2.3931,2.3931,0,1,1,.6133.0793Zm-.0077-4.2031a1.7978,1.7978,0,1,0,1.5555.89A1.7911,1.7911,0,0,0,104.392,149.111Z" fill="#e6007e"/><path d="M89.9454,159.4006a2.4084,2.4084,0,0,1-2.3144-1.768h0a2.4,2.4,0,1,1,2.3144,1.768Zm-1.73-1.929a1.7983,1.7983,0,1,0,1.2572-2.21,1.7859,1.7859,0,0,0-1.2572,2.21Z" fill="#e6007e"/><path d="M58.8705,159.6267a2.416,2.416,0,0,1-.6073-.0775,2.3962,2.3962,0,1,1,.6073.0775Zm-.0036-4.2037a1.8,1.8,0,1,0,.451.058A1.8012,1.8012,0,0,0,58.8669,155.423Z" fill="#e6007e"/><path d="M44.33,153.7515a2.4131,2.4131,0,1,1,.6469-.0888A2.3975,2.3975,0,0,1,44.33,153.7515Zm.0065-4.2049a1.8015,1.8015,0,1,0,.8831.2344A1.7994,1.7994,0,0,0,44.3363,149.5466Z" fill="#e6007e"/><circle cx="31.8097" cy="141.9193" r="2.1013" fill="#e6007e"/><path d="M22.1458,131.9836a2.4037,2.4037,0,0,1-1.2282-4.473h0a2.4046,2.4046,0,1,1,1.2282,4.473Zm-.9192-3.9509a1.798,1.798,0,1,0,2.4629.6321,1.8,1.8,0,0,0-2.4629-.6321Z" fill="#e6007e"/><path d="M15.9817,117.57a2.407,2.407,0,1,1,.6523-.09A2.4169,2.4169,0,0,1,15.9817,117.57Zm.0065-4.2043a1.8116,1.8116,0,0,0-.4877.0675,1.7883,1.7883,0,1,0,.4877-.0675Z" fill="#e6007e"/><path d="M15.6088,86.487a2.4044,2.4044,0,1,1,.5919-4.7346h0a2.4043,2.4043,0,0,1-.5919,4.7346Zm0-4.2031a1.7994,1.7994,0,1,0,.4428.0556h0A1.8114,1.8114,0,0,0,15.6088,82.2839Z" fill="#e6007e"/><path d="M21.4107,71.9274a2.4107,2.4107,0,1,1,.6576-.0918A2.43,2.43,0,0,1,21.4107,71.9274Zm.0065-4.2037a1.7977,1.7977,0,1,0,.8742.2284A1.8,1.8,0,0,0,21.4172,67.7237Z" fill="#e6007e"/><circle cx="30.7796" cy="56.9519" r="2.1013" fill="#e6007e"/><path d="M43.0761,49.63a2.4049,2.4049,0,1,1,2.0586-3.64h0a2.4061,2.4061,0,0,1-2.0586,3.64Zm-.0077-4.2043a1.7982,1.7982,0,1,0,1.5467.876h0a1.7894,1.7894,0,0,0-1.1051-.821A1.812,1.812,0,0,0,43.0684,45.4255Z" fill="#e6007e"/><path d="M57.4582,43.403a2.4042,2.4042,0,1,1,2.3108-3.0649v.0006a2.4057,2.4057,0,0,1-2.3108,3.0643Zm.0023-4.2037a1.8005,1.8005,0,1,0,.8707.2273A1.8008,1.8008,0,0,0,57.4605,39.1993Z" fill="#e6007e"/><path d="M88.5372,42.8756a2.4047,2.4047,0,1,1,2.3333-1.8237h0A2.4092,2.4092,0,0,1,88.5372,42.8756Zm.0006-4.2031a1.7982,1.7982,0,1,0,1.7444,2.2326h0a1.7985,1.7985,0,0,0-1.7444-2.2326Z" fill="#e6007e"/><path d="M103.1223,48.6105a2.4052,2.4052,0,1,1,2.1078-1.2418h0a2.3908,2.3908,0,0,1-1.4389,1.1471A2.4191,2.4191,0,0,1,103.1223,48.6105Zm.0071-4.2031a1.798,1.798,0,1,0,1.57,2.6677h0a1.8008,1.8008,0,0,0-.7037-2.4439A1.7821,1.7821,0,0,0,103.1294,44.4074Z" fill="#e6007e"/><text transform="translate(147.3644 119.1903)" font-size="59.1892" fill="#e6007e" font-family="BOOWIE">E<tspan x="26.6938" y="0" font-size="30.502">n</tspan><tspan x="44.5371" y="0" font-size="30.502" letter-spacing="-0.029em">c</tspan><tspan x="64.6377" y="0" font-size="30.502" letter-spacing="-0.057em">a</tspan><tspan x="83" y="0" font-size="30.502" letter-spacing="0em">n</tspan><tspan x="100.8438" y="0" font-size="30.502" letter-spacing="-0.18em">t</tspan><tspan x="114.4473" y="0" font-size="30.502" letter-spacing="0em">a</tspan><tspan x="134.5483" y="0" font-size="30.502" letter-spacing="0.054em">m</tspan><tspan x="159.0405" y="0" font-size="30.502" letter-spacing="0.043em">i</tspan><tspan x="164.8354" y="0" font-size="30.502" letter-spacing="0em">en</tspan><tspan x="196.4351" y="0" font-size="30.502" letter-spacing="-0.109em">t</tspan><tspan x="212.2046" y="0" font-size="30.502" letter-spacing="-0.057em">o</tspan><tspan x="234.7764" y="0" font-size="30.502">s</tspan></text><text transform="translate(147.3634 134.3524)" font-size="15.1207" fill="#e6007e" font-family="CATLinz, CAT Linz" letter-spacing="0.5em">Tarot Amor y Dinero</text></svg>