<svg id="Capa_1" data-name="Capa 1" xmlns="http://www.w3.org/2000/svg" viewBox="0 0 400 200"><title>Encantamientos</title><polygon points="95.202 93.545 95.202 93.533 96.414 93.533 95.202 93.545" fill="#e6007e"/><path d="M73.9847,148.4238a49.5059,49.5059,0,1,1,49.5062-49.5056A49.5618,49.5618,0,0,1,73.9847,148.4238Zm0-96.5874a47.0815,47.0815,0,1,0,47.0818,47.0818A47.1347,47.1347,0,0,0,73.9847,51.8364Z" fill="#e6007e"/><path d="M73.9847,150.2628A51.345,51.345,0,1,1,125.33,98.9182,51.403,51.403,0,0,1,73.9847,150.2628Zm0-102.0838a50.7389,50.7389,0,1,0,50.7391,50.7392A50.7963,50.7963,0,0,0,73.9847,48.179Z" fill="#e6007e"/><path d="M73.9847,153.2667a54.3489,54.3489,0,1,1,54.3492-54.3485A54.41,54.41,0,0,1,73.9847,153.2667Zm0-108.0916a53.7428,53.7428,0,1,0,53.743,53.7431A53.8035,53.8035,0,0,0,73.9847,45.1751Z" fill="#e6007e"/><path d="M73.9847,155.5574a56.6393,56.6393,0,1,1,56.6392-56.6392A56.7031,56.7031,0,0,1,73.9847,155.5574Zm0-112.0662a55.427,55.427,0,1,0,55.427,55.427A55.49,55.49,0,0,0,73.9847,43.4912Z" fill="#e6007e"/><path d="M73.9847,163.9091a64.9913,64.9913,0,1,1,64.9916-64.9909A65.0645,65.0645,0,0,1,73.9847,163.9091Zm0-128.77a63.7791,63.7791,0,1,0,63.7794,63.7794A63.8513,63.8513,0,0,0,73.9847,35.1388Z" fill="#e6007e"/><path d="M73.9847,167.6014a68.6836,68.6836,0,1,1,68.6839-68.6832A68.7607,68.7607,0,0,1,73.9847,167.6014Zm0-134.9427a66.2592,66.2592,0,1,0,66.2594,66.26A66.334,66.334,0,0,0,73.9847,32.6587Z" fill="#e6007e"/><polygon points="111.172 119.789 88.862 119.789 88.862 119.183 110.096 119.183 87.633 82.199 88.151 81.884 111.172 119.789" fill="#e6007e"/><rect x="73.6817" y="44.8721" width="0.6061" height="3.0039" fill="#e6007e"/><rect x="73.6817" y="44.8721" width="0.6061" height="3.0039" fill="#e6007e"/><rect x="75.8836" y="46.1813" width="3.0037" height="0.6062" transform="matrix(0.0644, -0.9979, 0.9979, 0.0644, 26.0106, 120.7133)" fill="#e6007e"/><rect x="79.2699" y="46.5112" width="3.0042" height="0.6064" transform="translate(23.9413 120.8818) rotate(-82.5975)" fill="#e6007e"/><rect x="82.6281" y="47.0602" width="3.0036" height="0.6057" transform="translate(21.384 120.7392) rotate(-78.8438)" fill="#e6007e"/><rect x="85.944" y="47.8247" width="3.0035" height="0.6062" transform="matrix(0.2558, -0.9667, 0.9667, 0.2558, 18.5476, 120.3504)" fill="#e6007e"/><rect x="89.2026" y="48.8028" width="3.0038" height="0.6057" transform="translate(15.2614 119.4406) rotate(-71.4234)" fill="#e6007e"/><rect x="92.3919" y="49.989" width="3.0036" height="0.6063" transform="translate(11.7836 118.1394) rotate(-67.7416)" fill="#e6007e"/><rect x="95.4973" y="51.3797" width="3.0035" height="0.6057" transform="translate(8.066 116.2644) rotate(-64.0359)" fill="#e6007e"/><rect x="98.5061" y="52.9676" width="3.0038" height="0.6066" transform="translate(4.1673 113.7188) rotate(-60.2829)" fill="#e6007e"/><rect x="101.4059" y="54.7484" width="3.0038" height="0.6058" transform="translate(0.2592 110.5844) rotate(-56.5584)" fill="#e6007e"/><rect x="104.1845" y="56.7123" width="3.0038" height="0.6059" transform="translate(-3.5725 106.8435) rotate(-52.8614)" fill="#e6007e"/><polygon points="107.579 60.489 107.121 60.093 109.085 57.82 109.543 58.217 107.579 60.489" fill="#e6007e"/><rect x="109.3316" y="61.158" width="3.0035" height="0.6061" transform="translate(-10.7037 97.3809) rotate(-45.4748)" fill="#e6007e"/><rect x="111.6787" y="63.6215" width="3.0037" height="0.6062" transform="translate(-13.8227 91.6076) rotate(-41.7543)" fill="#e6007e"/><rect x="113.8613" y="66.2321" width="3.0038" height="0.6055" transform="translate(-16.5031 85.1582) rotate(-38.0125)" fill="#e6007e"/><rect x="115.8705" y="68.9774" width="3.0037" height="0.6065" transform="translate(-18.6237 78.2889) rotate(-34.3415)" fill="#e6007e"/><rect x="117.6979" y="71.8478" width="3.0041" height="0.6066" transform="translate(-20.1288 70.7705) rotate(-30.6186)" fill="#e6007e"/><rect x="119.3353" y="74.8301" width="3.0037" height="0.6067" transform="translate(-20.9213 62.8377) rotate(-26.915)" fill="#e6007e"/><rect x="120.7762" y="77.9124" width="3.0043" height="0.6067" transform="translate(-20.93 54.5286) rotate(-23.2133)" fill="#e6007e"/><rect x="122.0151" y="81.0818" width="3.0038" height="0.6066" transform="translate(-20.0796 45.8886) rotate(-19.4959)" fill="#e6007e"/><rect x="123.0459" y="84.3244" width="3.0042" height="0.6064" transform="translate(-18.2916 36.9739) rotate(-15.7457)" fill="#e6007e"/><rect x="123.8649" y="87.6268" width="3.0041" height="0.6065" transform="translate(-15.6003 28.1237) rotate(-12.0557)" fill="#e6007e"/><polygon points="124.528 91.797 124.44 91.197 127.412 90.76 127.5 91.36 124.528 91.797" fill="#e6007e"/><rect x="124.8538" y="94.3565" width="3.0038" height="0.6058" transform="translate(-7.3429 10.69) rotate(-4.7079)" fill="#e6007e"/><rect x="125.0196" y="97.7547" width="3.0037" height="0.6062" transform="translate(-1.5165 1.9886) rotate(-0.8952)" fill="#e6007e"/><rect x="126.1645" y="99.9578" width="0.6056" height="3.0039" transform="translate(18.9965 222.8603) rotate(-87.2216)" fill="#e6007e"/><rect x="125.8894" y="103.3493" width="0.6065" height="3.0042" transform="translate(7.7427 218.3767) rotate(-83.5065)" fill="#e6007e"/><rect x="125.3959" y="106.7162" width="0.6063" height="3.004" transform="translate(-3.0531 212.7853) rotate(-79.8082)" fill="#e6007e"/><rect x="124.6857" y="110.0434" width="0.6061" height="3.0042" transform="translate(-13.3106 206.0859) rotate(-76.1034)" fill="#e6007e"/><rect x="123.7614" y="113.3186" width="0.6061" height="3.0034" transform="translate(-22.9248 198.3058) rotate(-72.3792)" fill="#e6007e"/><rect x="122.627" y="116.5263" width="0.6061" height="3.0035" transform="translate(-31.7167 189.6297) rotate(-68.6788)" fill="#e6007e"/><rect x="121.2877" y="119.654" width="0.6064" height="3.0039" transform="translate(-39.6415 180.0392) rotate(-64.9599)" fill="#e6007e"/><rect x="119.7486" y="122.6885" width="0.6061" height="3.0037" transform="matrix(0.481, -0.8767, 0.8767, 0.481, -46.5744, 169.7031)" fill="#e6007e"/><rect x="118.0163" y="125.6168" width="0.6062" height="3.0039" transform="translate(-52.4438 158.7192) rotate(-57.5375)" fill="#e6007e"/><rect x="116.0985" y="128.4275" width="0.6057" height="3.0039" transform="translate(-57.1841 147.2217) rotate(-53.8323)" fill="#e6007e"/><rect x="114.0022" y="131.1074" width="0.606" height="3.0037" transform="translate(-60.7483 135.288) rotate(-50.1164)" fill="#e6007e"/><rect x="111.7368" y="133.6464" width="0.6062" height="3.0043" transform="matrix(0.6896, -0.7242, 0.7242, 0.6896, -63.0968, 123.0988)" fill="#e6007e"/><rect x="109.3124" y="136.0338" width="0.6057" height="3.0038" transform="translate(-64.2101 110.7715) rotate(-42.6922)" fill="#e6007e"/><rect x="106.738" y="138.2589" width="0.606" height="3.0036" transform="translate(-64.0947 98.4887) rotate(-38.9931)" fill="#e6007e"/><rect x="104.0252" y="140.3124" width="0.6063" height="3.0044" transform="matrix(0.8164, -0.5774, 0.5774, 0.8164, -62.7388, 86.2776)" fill="#e6007e"/><rect x="101.1855" y="142.1866" width="0.6058" height="3.004" transform="translate(-60.2063 74.3983) rotate(-31.5698)" fill="#e6007e"/><rect x="98.2298" y="143.8726" width="0.6063" height="3.0039" transform="translate(-56.5041 62.8759) rotate(-27.8527)" fill="#e6007e"/><rect x="95.1721" y="145.3642" width="0.6057" height="3.0039" transform="translate(-51.7239 51.9049) rotate(-24.1459)" fill="#e6007e"/><rect x="92.0234" y="146.6547" width="0.6065" height="3.0036" transform="translate(-45.9242 41.5673) rotate(-20.4384)" fill="#e6007e"/><rect x="88.7985" y="147.7388" width="0.6056" height="3.0037" transform="translate(-39.1705 31.9455) rotate(-16.7209)" fill="#e6007e"/><rect x="85.5093" y="148.6113" width="0.6062" height="3.0041" transform="translate(-31.6019 23.1816) rotate(-13.0149)" fill="#e6007e"/><rect x="82.1715" y="149.2694" width="0.6058" height="3.0037" transform="translate(-23.2787 15.3081) rotate(-9.299)" fill="#e6007e"/><rect x="78.7972" y="149.7105" width="0.6066" height="3.0034" transform="translate(-14.3458 8.4193) rotate(-5.587)" fill="#e6007e"/><rect x="75.4016" y="149.9317" width="0.6064" height="3.0037" transform="translate(-4.9131 2.5574) rotate(-1.8745)" fill="#e6007e"/><rect x="70.8007" y="151.1316" width="3.0037" height="0.6064" transform="translate(-81.3167 218.972) rotate(-88.2101)" fill="#e6007e"/><rect x="67.4052" y="150.9127" width="3.0038" height="0.6066" transform="translate(-88.3108 205.04) rotate(-84.4007)" fill="#e6007e"/><rect x="64.031" y="150.4746" width="3.0039" height="0.6057" transform="translate(-93.7987 191.297) rotate(-80.777)" fill="#e6007e"/><rect x="60.6923" y="149.8185" width="3.0035" height="0.6062" transform="translate(-98.0603 177.0136) rotate(-77.0222)" fill="#e6007e"/><rect x="57.4027" y="148.9484" width="3.0041" height="0.6056" transform="translate(-100.9781 162.7848) rotate(-73.3008)" fill="#e6007e"/><rect x="54.177" y="147.8665" width="3.0039" height="0.606" transform="translate(-102.6053 148.8565) rotate(-69.6535)" fill="#e6007e"/><rect x="51.0274" y="146.5787" width="3.004" height="0.6057" transform="translate(-102.9963 134.828) rotate(-65.8897)" fill="#e6007e"/><rect x="47.9678" y="145.0892" width="3.0041" height="0.6063" transform="translate(-102.2069 121.3014) rotate(-62.1841)" fill="#e6007e"/><polygon points="45.986 145.147 45.47 144.83 47.041 142.269 47.557 142.586 45.986 145.147" fill="#e6007e"/><rect x="42.1702" y="141.5333" width="3.0038" height="0.6057" transform="translate(-97.3928 95.7336) rotate(-54.7878)" fill="#e6007e"/><rect x="39.4558" y="139.4816" width="3.0039" height="0.606" transform="translate(-93.4759 83.7054) rotate(-51.0256)" fill="#e6007e"/><rect x="36.8801" y="137.2579" width="3.0038" height="0.6066" transform="translate(-88.8254 72.6418) rotate(-47.3728)" fill="#e6007e"/><polygon points="35.078 136.432 34.66 135.993 36.834 133.92 37.252 134.359 35.078 136.432" fill="#e6007e"/><rect x="32.1866" y="132.3352" width="3.0039" height="0.6067" transform="translate(-77.2852 52.559) rotate(-39.9344)" fill="#e6007e"/><rect x="30.0888" y="129.6569" width="3.004" height="0.606" transform="matrix(0.8067, -0.5909, 0.5909, 0.8067, -70.688, 43.7822)" fill="#e6007e"/><rect x="28.1687" y="126.8479" width="3.0039" height="0.6062" transform="translate(-63.6393 35.822) rotate(-32.4798)" fill="#e6007e"/><rect x="26.4344" y="123.9205" width="3.0035" height="0.6066" transform="translate(-56.4159 28.8471) rotate(-28.8157)" fill="#e6007e"/><rect x="24.8927" y="120.8868" width="3.0041" height="0.6064" transform="translate(-48.8546 22.5937) rotate(-25.0642)" fill="#e6007e"/><rect x="23.5512" y="117.76" width="3.004" height="0.6065" transform="translate(-41.3633 17.2891) rotate(-21.4068)" fill="#e6007e"/><rect x="22.4148" y="114.553" width="3.0039" height="0.6061" transform="translate(-33.647 12.6292) rotate(-17.621)" fill="#e6007e"/><rect x="21.4883" y="111.2792" width="3.0037" height="0.6061" transform="translate(-26.1329 8.7909) rotate(-13.9005)" fill="#e6007e"/><rect x="20.7754" y="107.952" width="3.0037" height="0.6063" transform="translate(-18.8806 5.6808) rotate(-10.2348)" fill="#e6007e"/><rect x="20.2793" y="104.5858" width="3.0039" height="0.6065" transform="matrix(0.9936, -0.1132, 0.1132, 0.9936, -11.7351, 3.1404)" fill="#e6007e"/><rect x="20.0025" y="101.1948" width="3.004" height="0.6056" transform="translate(-4.934 1.1721) rotate(-2.8009)" fill="#e6007e"/><rect x="21.1443" y="96.5939" width="0.6062" height="3.0037" transform="translate(-76.9703 118.0134) rotate(-89.108)" fill="#e6007e"/><rect x="21.3082" y="93.1949" width="0.6057" height="3.0041" transform="translate(-74.514 108.6445) rotate(-85.4004)" fill="#e6007e"/><rect x="21.6907" y="89.8142" width="0.6065" height="3.0036" transform="translate(-71.5448 99.8518) rotate(-81.6719)" fill="#e6007e"/><rect x="22.2915" y="86.4653" width="0.6065" height="3.0035" transform="translate(-68.1492 91.7423) rotate(-77.977)" fill="#e6007e"/><rect x="23.1084" y="83.162" width="0.6064" height="3.004" transform="translate(-64.4286 84.2439) rotate(-74.2686)" fill="#e6007e"/><polygon points="25.756 82.206 22.923 81.206 23.124 80.634 25.957 81.635 25.756 82.206" fill="#e6007e"/><rect x="25.3734" y="76.7487" width="0.6062" height="3.0039" transform="translate(-56.3665 71.0819) rotate(-66.84)" fill="#e6007e"/><polygon points="28.318 76.117 25.639 74.759 25.912 74.218 28.592 75.576 28.318 76.117" fill="#e6007e"/><polygon points="29.89 73.209 27.304 71.681 27.611 71.158 30.197 72.687 29.89 73.209" fill="#e6007e"/><rect x="30.2731" y="67.8101" width="0.6058" height="3.0039" transform="translate(-43.9158 55.5271) rotate(-55.7119)" fill="#e6007e"/><rect x="32.2804" y="65.0624" width="0.6055" height="3.004" transform="translate(-39.929 51.252) rotate(-51.9943)" fill="#e6007e"/><rect x="34.4609" y="62.4511" width="0.6062" height="3.0038" transform="translate(-36.1069 47.3446) rotate(-48.283)" fill="#e6007e"/><rect x="36.8061" y="59.9857" width="0.6061" height="3.0039" transform="translate(-32.4801 43.7351) rotate(-44.5769)" fill="#e6007e"/><rect x="39.3064" y="57.6777" width="0.6059" height="3.0037" transform="translate(-29.0639 40.3355) rotate(-40.8609)" fill="#e6007e"/><rect x="41.9501" y="55.5358" width="0.6059" height="3.0039" transform="translate(-25.8711 37.0947) rotate(-37.1521)" fill="#e6007e"/><rect x="44.7274" y="53.57" width="0.6058" height="3.0041" transform="translate(-22.895 33.9342) rotate(-33.4427)" fill="#e6007e"/><rect x="47.6255" y="51.7878" width="0.6066" height="3.004" transform="translate(-20.1193 30.7857) rotate(-29.7323)" fill="#e6007e"/><rect x="50.6335" y="50.1973" width="0.6062" height="3.0035" transform="translate(-17.5166 27.5849) rotate(-26.0197)" fill="#e6007e"/><rect x="53.738" y="48.8042" width="0.6063" height="3.0043" transform="translate(-15.0474 24.269) rotate(-22.3003)" fill="#e6007e"/><rect x="56.9263" y="47.6153" width="0.6057" height="3.0038" transform="translate(-12.6733 20.8095) rotate(-18.592)" fill="#e6007e"/><rect x="60.1843" y="46.6352" width="0.6065" height="3.0041" transform="translate(-10.3372 17.1568) rotate(-14.8878)" fill="#e6007e"/><rect x="63.4996" y="45.8682" width="0.6057" height="3.004" transform="translate(-7.9669 13.255) rotate(-11.1682)" fill="#e6007e"/><polygon points="67.055 48.348 66.665 45.369 67.266 45.291 67.656 48.27 67.055 48.348" fill="#e6007e"/><rect x="70.2432" y="44.9852" width="0.6062" height="3.0032" transform="translate(-2.8906 4.7157) rotate(-3.7517)" fill="#e6007e"/><polygon points="51.787 92.06 50.227 91.127 73.756 51.702 87.34 74.213 85.783 75.153 73.765 55.236 51.787 92.06" fill="#e6007e"/><polygon points="76.5 123.632 30.835 123.632 45.693 98.728 47.254 99.66 34.037 121.814 76.5 121.814 76.5 123.632" fill="#e6007e"/><polygon points="117.144 123.632 86.901 123.632 86.901 121.814 113.923 121.814 90.22 82.511 91.777 81.571 117.144 123.632" fill="#e6007e"/><polygon points="101.796 99.412 100.76 98.782 115.061 75.289 70.585 75.289 70.585 74.077 117.218 74.077 101.796 99.412" fill="#e6007e"/><polygon points="73.586 145.753 60.015 123.033 61.056 122.412 73.596 143.406 96.141 106.358 97.177 106.988 73.586 145.753" fill="#e6007e"/><polygon points="54.972 114.596 30.762 74.077 61.105 74.077 61.105 75.289 32.898 75.289 56.013 113.975 54.972 114.596" fill="#e6007e"/><polygon points="54.176 96.769 53.658 96.455 74.088 62.627 81.233 74.526 80.713 74.839 74.087 63.803 54.176 96.769" fill="#e6007e"/><polygon points="79.955 117.608 40.882 117.608 49.136 103.935 49.655 104.248 41.956 117.001 79.955 117.001 79.955 117.608" fill="#e6007e"/><polygon points="106.926 117.608 90.669 117.608 90.669 117.001 105.855 117.001 84.966 82.197 85.485 81.885 106.926 117.608" fill="#e6007e"/><polygon points="81.894 115.195 45.105 115.195 50.35 106.506 51.907 107.446 48.326 113.377 81.894 113.377 81.894 115.195" fill="#e6007e"/><polygon points="102.864 115.195 92.027 115.195 92.027 113.377 99.643 113.377 81.031 82.511 82.588 81.571 102.864 115.195" fill="#e6007e"/><polygon points="56.393 99.991 54.835 99.052 73.979 67.299 78.151 74.213 76.594 75.153 73.979 70.818 56.393 99.991" fill="#e6007e"/><polygon points="58.846 114.989 36.759 77.18 58.778 77.18 58.778 79.968 41.616 79.968 61.254 113.583 58.846 114.989" fill="#e6007e"/><polygon points="73.026 139.276 63.768 123.426 66.176 122.02 73.09 133.857 92.903 101.687 95.276 103.149 73.026 139.276" fill="#e6007e"/><polygon points="99.919 95.61 97.545 94.147 106.285 79.968 68.245 79.968 68.245 77.18 111.278 77.18 99.919 95.61" fill="#e6007e"/><polygon points="72.597 129.947 68.57 123.028 69.618 122.418 72.645 127.621 91.348 98.37 92.37 99.024 72.597 129.947" fill="#e6007e"/><polygon points="63.673 114.591 44.402 81.435 56.717 81.435 56.717 82.647 46.509 82.647 64.72 113.981 63.673 114.591" fill="#e6007e"/><polygon points="97.097 91.628 96.076 90.976 101.396 82.647 66.148 82.647 66.148 81.435 103.608 81.435 97.097 91.628" fill="#e6007e"/><path d="M70.0124,102.9033a6.6147,6.6147,0,0,1-2.3881-3.0427h-.0121a6.5226,6.5226,0,0,1-.4364-2.34,6.39,6.39,0,0,1,.2424-1.7456,6.5542,6.5542,0,0,1,2.4487-3.5033,6.6321,6.6321,0,0,1,2.9457-1.2607,6.391,6.391,0,0,1,2.3517,0A6.743,6.743,0,0,1,78.5949,92.66v.0121a6.4373,6.4373,0,0,1,2.0971,3.6852,6.114,6.114,0,0,1,.1091,1.1637,6.3875,6.3875,0,0,1-.6788,2.873,6.5726,6.5726,0,0,1-2.6063,2.7881,6.8137,6.8137,0,0,1-3.5276.97" fill="#e6007e"/><path d="M73.9883,104.8307a15.794,15.794,0,0,1-4.6885-.7062,14.471,14.471,0,0,1-5.2981-2.9346,13.2155,13.2155,0,0,1-2.45-2.8062l-.0971-.15V96.9548l.0965-.15A13.1592,13.1592,0,0,1,63.8123,94.16a14.44,14.44,0,0,1,5.4384-3.0856l.0988-.0272a15.1764,15.1764,0,0,1,3.42-.64,13.2451,13.2451,0,0,1,2.4517.0012,15.5045,15.5045,0,0,1,4.2274.92,14.2477,14.2477,0,0,1,5.478,3.5946,12.4877,12.4877,0,0,1,1.4881,1.8829l.0959.15v1.2773l-.0965.15a13.1465,13.1465,0,0,1-3.265,3.4561,14.3078,14.3078,0,0,1-5.1181,2.4629A15.3022,15.3022,0,0,1,73.9883,104.8307Zm0-1.2122a14.0928,14.0928,0,0,0,3.7307-.4878,13.132,13.132,0,0,0,4.7033-2.2616,11.9748,11.9748,0,0,0,2.876-2.9951v-.56a11.2187,11.2187,0,0,0-1.25-1.5555l-.0047-.0047a13.0262,13.0262,0,0,0-5.0152-3.2881,14.3438,14.3438,0,0,0-3.91-.8494,11.8876,11.8876,0,0,0-2.2486-.0011,14.02,14.02,0,0,0-3.2437.6167l-.1024.0284a13.208,13.208,0,0,0-4.8962,2.7986,11.9309,11.9309,0,0,0-1.961,2.2557v.5593a12.045,12.045,0,0,0,2.1309,2.402,13.2716,13.2716,0,0,0,4.86,2.6908c.0852.0266.1711.0521.2563.0769l.4487-.6345a6.2439,6.2439,0,0,0,3.626,1.1371Z" fill="#e6007e"/><polygon points="74.288 114.286 73.682 114.286 73.682 104.225 74.288 104.152 74.288 114.286" fill="#e6007e"/><polygon points="73.682 90.963 73.682 82.041 74.288 82.041 74.288 90.902 73.682 90.963" fill="#e6007e"/><rect x="80.2525" y="102.8706" width="0.6059" height="9.339" transform="translate(-47.1212 65.6744) rotate(-35.0096)" fill="#e6007e"/><polygon points="69.439 91.957 69.281 91.957 69.179 91.828 64.488 85.124 64.984 84.776 69.675 91.48 69.433 91.65 69.439 91.957" fill="#e6007e"/><rect x="85.6589" y="99.1286" width="0.6059" height="6.7612" transform="matrix(0.3425, -0.9395, 0.9395, 0.3425, -39.7881, 148.166)" fill="#e6007e"/><rect x="61.2207" y="90.7652" width="0.6059" height="5.7291" transform="translate(-47.5204 119.3413) rotate(-69.9587)" fill="#e6007e"/><rect x="84.3933" y="94.3566" width="5.2461" height="0.6068" transform="translate(-21.5822 25.8217) rotate(-15.0394)" fill="#e6007e"/><rect x="57.2912" y="101.3637" width="7.2279" height="0.6065" transform="translate(-24.1393 19.1258) rotate(-14.9314)" fill="#e6007e"/><polygon points="67.621 100.164 67.609 100.164 67.609 99.557 67.621 100.164" fill="#e6007e"/><polygon points="78.288 92.672 78.288 92.66 78.895 92.66 78.288 92.672" fill="#e6007e"/><rect x="77.8166" y="88.5508" width="7.95" height="0.6058" transform="translate(-38.8495 94.3825) rotate(-49.9937)" fill="#e6007e"/><rect x="61.0841" y="107.1523" width="10.2129" height="0.6058" transform="translate(-58.6694 89.0756) rotate(-49.9937)" fill="#e6007e"/><polygon points="52.781 94.358 52.264 94.041 74.101 58.342 83.947 74.525 83.43 74.84 74.1 59.506 52.781 94.358" fill="#e6007e"/><polygon points="78.537 119.796 36.499 119.796 47.818 101.508 48.333 101.826 37.587 119.19 78.537 119.19 78.537 119.796" fill="#e6007e"/><path d="M76.8314,101.4237a9.2181,9.2181,0,0,1-.8284.5021,4.5929,4.5929,0,0,1-1.9769.4393,4.6462,4.6462,0,0,1-3.2791-7.9357,4.5364,4.5364,0,0,1,3.3168-1.3525,4.7478,4.7478,0,0,1,2.7676.9351l-1.5564-.3138a4.0227,4.0227,0,0,0-2.8618,6.8626,3.8275,3.8275,0,0,0,2.8178,1.183Zm-1.77-4.2361h1.3493l.4205-1.28.4142,1.28h1.3493l-1.092.7907.4142,1.2866-1.0857-.7908-1.092.7908.4142-1.2866Z" fill="#fff"/><path d="M70.7642,37.9626h2.46l.76-2.3411.76,2.3411h2.46L75.2172,39.41l.76,2.3411-1.9929-1.4477L71.992,41.7513l.76-2.3411Z" fill="#e6007e"/><path d="M134.94,95.6974v2.46l2.341.7605-2.341.76v2.46l-1.4477-1.9882-2.341.76,1.4477-1.9929-1.4477-1.9928,2.341.76Z" fill="#e6007e"/><path d="M77.2055,159.8735h-2.46l-.76,2.341-.76-2.341h-2.46l1.9883-1.4477-.76-2.341,1.9928,1.4477,1.9929-1.4477-.76,2.341Z" fill="#e6007e"/><path d="M13.0294,102.1386v-2.46l-2.341-.76,2.341-.7605v-2.46l1.4477,1.9883,2.341-.76L15.37,98.918l1.4477,1.9929-2.341-.76Z" fill="#e6007e"/><circle cx="116.575" cy="56.3278" r="2.1013" fill="#e6007e"/><path d="M126.1266,71.1656a2.4207,2.4207,0,0,1-.6244-.0823,2.39,2.39,0,1,1,.6244.0823Zm-.0071-4.2037a1.7983,1.7983,0,1,0,1.56.8973A1.7892,1.7892,0,0,0,126.12,66.9619Z" fill="#e6007e"/><path d="M132.1351,85.64a2.4139,2.4139,0,1,1,.63-.0841h0A2.4109,2.4109,0,0,1,132.1351,85.64Zm.0035-4.2037a1.7984,1.7984,0,1,0,.4688,3.5348h0a1.7984,1.7984,0,0,0-.4688-3.5348Z" fill="#e6007e"/><path d="M132.2132,116.7232a2.4043,2.4043,0,1,1,2.3256-1.7893A2.3943,2.3943,0,0,1,132.2132,116.7232Zm.0012-4.2025a1.7987,1.7987,0,1,0,.4593.06A1.7807,1.7807,0,0,0,132.2144,112.5207Z" fill="#e6007e"/><path d="M126.264,131.2266a2.404,2.404,0,1,1,2.0912-1.21A2.3871,2.3871,0,0,1,126.264,131.2266Zm.0071-4.2031a1.8163,1.8163,0,0,0-.4753.0639,1.7984,1.7984,0,0,0-.42,3.2963h0a1.7985,1.7985,0,1,0,.8956-3.36Z" fill="#e6007e"/><circle cx="116.7811" cy="141.3012" r="2.1013" fill="#e6007e"/><path d="M104.4,153.3141a2.416,2.416,0,0,1-.6133-.0793,2.3931,2.3931,0,1,1,.6133.0793Zm-.0077-4.2031a1.7978,1.7978,0,1,0,1.5555.89A1.7911,1.7911,0,0,0,104.392,149.111Z" fill="#e6007e"/><path d="M89.9454,159.4006a2.4084,2.4084,0,0,1-2.3144-1.768h0a2.4,2.4,0,1,1,2.3144,1.768Zm-1.73-1.929a1.7983,1.7983,0,1,0,1.2572-2.21,1.7859,1.7859,0,0,0-1.2572,2.21Z" fill="#e6007e"/><path d="M58.8705,159.6267a2.416,2.416,0,0,1-.6073-.0775,2.3962,2.3962,0,1,1,.6073.0775Zm-.0036-4.2037a1.8,1.8,0,1,0,.451.058A1.8012,1.8012,0,0,0,58.8669,155.423Z" fill="#e6007e"/><path d="M44.33,153.7515a2.4131,2.4131,0,1,1,.6469-.0888A2.3975,2.3975,0,0,1,44.33,153.7515Zm.0065-4.2049a1.8015,1.8015,0,1,0,.8831.2344A1.7994,1.7994,0,0,0,44.3363,149.5466Z" fill="#e6007e"/><circle cx="31.8097" cy="141.9193" r="2.1013" fill="#e6007e"/><path d="M22.1458,131.9836a2.4037,2.4037,0,0,1-1.2282-4.473h0a2.4046,2.4046,0,1,1,1.2282,4.473Zm-.9192-3.9509a1.798,1.798,0,1,0,2.4629.6321,1.8,1.8,0,0,0-2.4629-.6321Z" fill="#e6007e"/><path d="M15.9817,117.57a2.407,2.407,0,1,1,.6523-.09A2.4169,2.4169,0,0,1,15.9817,117.57Zm.0065-4.2043a1.8116,1.8116,0,0,0-.4877.0675,1.7883,1.7883,0,1,0,.4877-.0675Z" fill="#e6007e"/><path d="M15.6088,86.487a2.4044,2.4044,0,1,1,.5919-4.7346h0a2.4043,2.4043,0,0,1-.5919,4.7346Zm0-4.2031a1.7994,1.7994,0,1,0,.4428.0556h0A1.8114,1.8114,0,0,0,15.6088,82.2839Z" fill="#e6007e"/><path d="M21.4107,71.9274a2.4107,2.4107,0,1,1,.6576-.0918A2.43,2.43,0,0,1,21.4107,71.9274Zm.0065-4.2037a1.7977,1.7977,0,1,0,.8742.2284A1.8,1.8,0,0,0,21.4172,67.7237Z" fill="#e6007e"/><circle cx="30.7796" cy="56.9519" r="2.1013" fill="#e6007e"/><path d="M43.0761,49.63a2.4049,2.4049,0,1,1,2.0586-3.64h0a2.4061,2.4061,0,0,1-2.0586,3.64Zm-.0077-4.2043a1.7982,1.7982,0,1,0,1.5467.876h0a1.7894,1.7894,0,0,0-1.1051-.821A1.812,1.812,0,0,0,43.0684,45.4255Z" fill="#e6007e"/><path d="M57.4582,43.403a2.4042,2.4042,0,1,1,2.3108-3.0649v.0006a2.4057,2.4057,0,0,1-2.3108,3.0643Zm.0023-4.2037a1.8005,1.8005,0,1,0,.8707.2273A1.8008,1.8008,0,0,0,57.4605,39.1993Z" fill="#e6007e"/><path d="M88.5372,42.8756a2.4047,2.4047,0,1,1,2.3333-1.8237h0A2.4092,2.4092,0,0,1,88.5372,42.8756Zm.0006-4.2031a1.7982,1.7982,0,1,0,1.7444,2.2326h0a1.7985,1.7985,0,0,0-1.7444-2.2326Z" fill="#e6007e"/><path d="M103.1223,48.6105a2.4052,2.4052,0,1,1,2.1078-1.2418h0a2.3908,2.3908,0,0,1-1.4389,1.1471A2.4191,2.4191,0,0,1,103.1223,48.6105Zm.0071-4.2031a1.798,1.798,0,1,0,1.57,2.6677h0a1.8008,1.8008,0,0,0-.7037-2.4439A1.7821,1.7821,0,0,0,103.1294,44.4074Z" fill="#e6007e"/><path d="M148.2521,78.113h21.4268V79.77H151.6852V97.8229h13.2583V99.48H151.6852v18.0527h17.9937V119.19H147.6012V78.113Z" fill="#e6007e"/><path d="M188.7907,116.2009V98.0217h.854V119.19h-1.19l-11.957-17.5693V119.19h-.854V100.34l-1.5859-2.3183h2.3486Z" fill="#e6007e"/><path d="M202.9738,97.2287a10.6851,10.6851,0,0,1,4.27.854,10.8084,10.8084,0,0,1,3.4775,2.3794l-.9458.9453a9.36,9.36,0,0,0-3.0346-2.44,8.4451,8.4451,0,0,0-7.336-.0918,9.3079,9.3079,0,0,0-2.9282,2.1655,10.2163,10.2163,0,0,0-1.9673,3.2183,11.2416,11.2416,0,0,0,0,7.9,10.2033,10.2033,0,0,0,1.9673,3.2177,9.2926,9.2926,0,0,0,2.9282,2.166,8.4451,8.4451,0,0,0,7.336-.0918,9.3532,9.3532,0,0,0,3.0346-2.44l.9458.9761a11.0475,11.0475,0,0,1-3.4775,2.3486,11.0513,11.0513,0,0,1-8.5557-.0151,11.0317,11.0317,0,0,1-5.8256-5.8262,10.9929,10.9929,0,0,1,0-8.5708,11.0317,11.0317,0,0,1,5.8256-5.8262A10.6226,10.6226,0,0,1,202.9738,97.2287Z" fill="#e6007e"/><path d="M229.7848,119.16h-2.2573q-1.8-4.6055-3.5684-9.1508t-3.5385-9.15L212.9171,119.16h-.915l8.6318-21.1381h.9458q2.0436,5.307,4.0874,10.5688T229.7848,119.16Z" fill="#e6007e"/><path d="M245.0968,116.2009V98.0217h.854V119.19h-1.1894l-11.957-17.5693V119.19h-.854V100.34l-1.586-2.3183h2.3486Z" fill="#e6007e"/><path d="M257.7555,98.0827h7.29v.854h-7.29V119.22h-2.105V98.9367h-7.29v-.854h9.395Z" fill="#e6007e"/><path d="M279.5944,119.16h-2.2573q-1.8-4.6055-3.5684-9.1508t-3.5386-9.15L262.7267,119.16h-.915l8.6318-21.1381h.9458q2.0435,5.307,4.0874,10.5688T279.5944,119.16Z" fill="#e6007e"/><path d="M283.5905,103.0851l-2.2876-5.0634h2.3179l8.3271,18.4843,7.5952-18.4843h.7012l2.227,21.1684h-2.1049l-1.7383-16.5932-6.1919,14.9765-.6714,1.6167h-.915l-6.5274-14.458-.9458,14.458h-.8843Z" fill="#e6007e"/><path d="M308.6012,98.0217V119.19h-2.1049V98.0217Z" fill="#e6007e"/><path d="M312.6574,98.0217h11.0415v.854h-9.2725v9.3032h6.8325v.854h-6.8325v9.3032h9.2725v.854h-11.377V98.0217Z" fill="#e6007e"/><path d="M340.6886,116.2009V98.0217h.854V119.19h-1.1894l-11.957-17.5693V119.19h-.8541V100.34l-1.5859-2.3183h2.3486Z" fill="#e6007e"/><path d="M353.3468,98.0827h7.29v.854h-7.29V119.22h-2.1049V98.9367h-7.29v-.854h9.395Z" fill="#e6007e"/><path d="M370.6413,97.259a10.6239,10.6239,0,0,1,4.2856.87,11.0423,11.0423,0,0,1,3.4771,2.3638,11.3568,11.3568,0,0,1,2.3486,3.4926,10.9254,10.9254,0,0,1,0,8.5406,11.0327,11.0327,0,0,1-5.8257,5.8257,11.0011,11.0011,0,0,1-8.5713,0,11.0336,11.0336,0,0,1-5.8257-5.8257,10.92,10.92,0,0,1,0-8.5406,11.3483,11.3483,0,0,1,2.3487-3.4926,11.0305,11.0305,0,0,1,3.477-2.3638A10.6229,10.6229,0,0,1,370.6413,97.259Zm0,.8847a8.2508,8.2508,0,0,0-3.5689.793,9.3079,9.3079,0,0,0-2.9282,2.1655,10.2488,10.2488,0,0,0-1.9673,3.2032,10.6867,10.6867,0,0,0-.7168,3.9345,10.813,10.813,0,0,0,.7168,3.95,10.2026,10.2026,0,0,0,1.9673,3.2178,9.2927,9.2927,0,0,0,2.9282,2.1655,8.4272,8.4272,0,0,0,7.1377,0,9.3017,9.3017,0,0,0,2.9282-2.1655,10.2191,10.2191,0,0,0,1.9673-3.2178,10.8214,10.8214,0,0,0,.7168-3.95,10.6949,10.6949,0,0,0-.7168-3.9345,10.2655,10.2655,0,0,0-1.9673-3.2032,9.317,9.317,0,0,0-2.9282-2.1655A8.2536,8.2536,0,0,0,370.6413,98.1437Z" fill="#e6007e"/><path d="M392.3283,101.4074a2.36,2.36,0,0,0-.3355-.7017,3.7889,3.7889,0,0,0-.7168-.8081,4.4842,4.4842,0,0,0-1.0825-.6709,3.44,3.44,0,0,0-1.4336-.29,3.3931,3.3931,0,0,0-1.4033.2744,3.2559,3.2559,0,0,0-1.022.7017,3.06,3.06,0,0,0-.625.93,2.4588,2.4588,0,0,0-.2138.9609,3.3135,3.3135,0,0,0,.1377.93,2.9793,2.9793,0,0,0,.6557,1.0678,11.5906,11.5906,0,0,0,1.4946,1.3726,29.6032,29.6032,0,0,0,2.6841,1.8452,8.5287,8.5287,0,0,1,2.6231,2.2573,7.25,7.25,0,0,1,1.2656,2.6382,6.1333,6.1333,0,0,1,.0459,2.6846,5.6856,5.6856,0,0,1-3.1113,4.0259,6.4636,6.4636,0,0,1-4.4224.3662,6.27,6.27,0,0,1-1.7236-.7779,7.6444,7.6444,0,0,1-1.647-1.4335,7.5112,7.5112,0,0,1-1.2964-2.1656h.9151a2.3511,2.3511,0,0,0,.3505.7471,6.2169,6.2169,0,0,0,1.022,1.2505,7.5636,7.5636,0,0,0,1.6319,1.19,4.654,4.654,0,0,0,2.1811.564,3.9712,3.9712,0,0,0,4.148-2.8975,5.01,5.01,0,0,0-.0455-2.76,5.5555,5.5555,0,0,0-1.7539-2.669,14.38,14.38,0,0,0-2.0288-1.5556q-1.0217-.641-1.9365-1.2813a11.633,11.633,0,0,1-1.6475-1.3877,4.7207,4.7207,0,0,1-1.0976-1.8457,3.8665,3.8665,0,0,1-.168-2.0586,4.5,4.5,0,0,1,.8081-1.8457,5.0249,5.0249,0,0,1,1.5254-1.3569,4.6818,4.6818,0,0,1,1.9824-.6255,6.857,6.857,0,0,1,1.3575.0762,4.417,4.417,0,0,1,1.2963.4121,4.6614,4.6614,0,0,1,1.1133.7773,3.5979,3.5979,0,0,1,.8086,1.1441l.03.915Z" fill="#e6007e"/><path d="M153.3366,125.4631l.0513.0219.1625.65-.0146.0518-.0444.0073a4.7339,4.7339,0,0,0-.502-.1367,2.45,2.45,0,0,0-.5171-.0552h-1.4614v7.1617c0,.0786.001.1694.0034.2729s.0073.2065.0147.31a2.3082,2.3082,0,0,0,.041.2988.9889.9889,0,0,0,.081.2475v.0445l-.0146.0146h-1.1519a.0836.0836,0,0,1-.0258-.0073.0847.0847,0,0,0-.0259-.0073v-.0445a1.2768,1.2768,0,0,0,.0737-.2509c.02-.0987.0371-.1992.0518-.3028s.0244-.2065.03-.31.0074-.1919.0074-.2656v-7.1617h-1.44a2.3985,2.3985,0,0,0-.5132.0552,4.7945,4.7945,0,0,0-.498.1367l-.0518-.0073-.0073-.0518.1548-.65.0518-.0219Z" fill="#e6007e"/><path d="M165.0978,129.6716a2.2751,2.2751,0,0,0-.0439-.4434,1.3275,1.3275,0,0,0-.1514-.4058.88.88,0,0,0-.2847-.2993.7876.7876,0,0,0-.4355-.1142.7125.7125,0,0,0-.21.0332c-.0713.0219-.1416.0468-.21.0737s-.1353.0518-.1992.0737a.5544.5544,0,0,1-.1846.0332.0585.0585,0,0,1-.0664-.0664.3439.3439,0,0,1,.0185-.0957.9834.9834,0,0,1,.0479-.122c.0195-.0415.04-.0821.0591-.1216s.0346-.0713.0444-.0962l.0591-.0293a.49.49,0,0,0,.2065.0439.9106.9106,0,0,0,.2178-.0258q.107-.0256.2105-.0586c.0688-.0225.1391-.0435.21-.063a.819.819,0,0,1,.2178-.0293,1.2127,1.2127,0,0,1,.6352.1548,1.264,1.264,0,0,1,.417.4023,1.7256,1.7256,0,0,1,.229.5649,2.99,2.99,0,0,1,.07.6421V132.89a1.4492,1.4492,0,0,0,.0483.4321.5923.5923,0,0,0,.14.2364,1.3176,1.3176,0,0,0,.2251.1767,2.1442,2.1442,0,0,1,.31.2549c-.0195.0195-.0552.0581-.1069.1143s-.1084.1147-.17.1738-.1181.1118-.17.1587-.0874.07-.1069.07a.4843.4843,0,0,1-.2476-.0776,1.3817,1.3817,0,0,1-.247-.1919,1.92,1.92,0,0,1-.2105-.24,1.1822,1.1822,0,0,1-.1367-.229,5.721,5.721,0,0,1-.9.5171,2.39,2.39,0,0,1-1.0117.2217,1.9382,1.9382,0,0,1-.65-.1074,1.5808,1.5808,0,0,1-.5313-.31,1.4653,1.4653,0,0,1-.3618-.4907,1.5111,1.5111,0,0,1-.1328-.6426,1.7632,1.7632,0,0,1,.1475-.7568,1.5359,1.5359,0,0,1,.4023-.5278,1.9705,1.9705,0,0,1,.5981-.3394,4.6246,4.6246,0,0,1,.7344-.2,5.7067,5.7067,0,0,0,.7866-.21,4.0018,4.0018,0,0,0,.7344-.3432Zm.0591,3.7207a4.14,4.14,0,0,1-.07-.524q-.019-.2658-.0186-.5317,0-.3245.0147-.6387t.0146-.6386a4.6189,4.6189,0,0,1-.539.1919q-.2806.0813-.55.1665a4.7561,4.7561,0,0,0-.5166.1953,1.6515,1.6515,0,0,0-.436.2807,1.2113,1.2113,0,0,0-.2988.4243,1.5675,1.5675,0,0,0-.1109.6241,1.1674,1.1674,0,0,0,.0777.4282,1.051,1.051,0,0,0,.2178.3472,1.0273,1.0273,0,0,0,.332.2324,1.0482,1.0482,0,0,0,.4282.0849,1.7905,1.7905,0,0,0,.7827-.1884A2.6183,2.6183,0,0,0,165.1569,133.3923Z" fill="#e6007e"/><path d="M176.1208,133.7248a1.1689,1.1689,0,0,0,.14.5683v.0445a.06.06,0,0,0-.0225.0073.0556.0556,0,0,1-.0219.0073H175.08a.0554.0554,0,0,1-.0224-.0073.056.056,0,0,0-.022-.0073v-.0445a1.0131,1.0131,0,0,0,.17-.5683V129.339a4.3138,4.3138,0,0,0-.0332-.5317,1.9126,1.9126,0,0,0-.1367-.5093v-.0146l.0444-.0445.9888-.2065.0371.0147a2.6936,2.6936,0,0,1,.0152.2807v.28q.1179-.0887.2656-.188c.0981-.0669.1992-.1279.3027-.1846a2.2464,2.2464,0,0,1,.3174-.144.9221.9221,0,0,1,.3174-.0591,1.404,1.404,0,0,1,.5019.0923,1.03,1.03,0,0,1,.4136.2842l.0147.0444-.0147.022-.5981.3618h-.0591a.8639.8639,0,0,0-.21-.1773.5078.5078,0,0,0-.269-.0737.7277.7277,0,0,0-.2808.0552,1.5277,1.5277,0,0,0-.2548.1367,2.3344,2.3344,0,0,0-.2325.1773q-.1106.0959-.2138.1845Z" fill="#e6007e"/><path d="M189.6838,127.9142a3.2115,3.2115,0,0,1,1.2807.2583,3.4075,3.4075,0,0,1,1.0557.7051,3.3132,3.3132,0,0,1,.7163,1.0484,3.26,3.26,0,0,1,0,2.562,3.3823,3.3823,0,0,1-.7124,1.0522,3.3158,3.3158,0,0,1-1.0557.7085,3.3178,3.3178,0,0,1-2.5693,0,3.3506,3.3506,0,0,1-1.7759-1.7568,3.2784,3.2784,0,0,1,0-2.5694,3.32,3.32,0,0,1,.7163-1.0449,3.3961,3.3961,0,0,1,1.06-.7051A3.2354,3.2354,0,0,1,189.6838,127.9142Zm0,.4283a1.8043,1.8043,0,0,0-.9747.2661,2.4657,2.4657,0,0,0-.72.68,3.1484,3.1484,0,0,0-.4428.9238,3.3653,3.3653,0,0,0,0,1.9961,3.2514,3.2514,0,0,0,.4394.9277,2.3505,2.3505,0,0,0,.7163.68,1.842,1.842,0,0,0,.982.2627,1.8066,1.8066,0,0,0,.9746-.2666,2.4623,2.4623,0,0,0,.72-.68,3.2229,3.2229,0,0,0,.4468-.9243,3.2968,3.2968,0,0,0,0-1.9961,3.2238,3.2238,0,0,0-.4468-.9238,2.4627,2.4627,0,0,0-.72-.68A1.8054,1.8054,0,0,0,189.6838,128.3425Z" fill="#e6007e"/><path d="M203.0841,133.0085a.5349.5349,0,0,0,.0811.2915.84.84,0,0,0,.207.2251,1.1764,1.1764,0,0,0,.5684.229l.0371.03v.0439l-.51.6426-.0664.022a2.0081,2.0081,0,0,1-.9018-.5166,1.3448,1.3448,0,0,1-.3311-.9673v-4.4522h-.9966l-.0591-.0219.0147-.0591a8.1862,8.1862,0,0,0,1.0278-.8047,6.2612,6.2612,0,0,0,.8614-.9746l.0449-.0147.0371.044.0073,1.3955c.1528,0,.3052-.0025.458-.0073s.3052-.0074.4575-.0074c.0542,0,.107.0015.1587.0035a.66.66,0,0,1,.1514.0258.6911.6911,0,0,1-.1587.2217c-.0713.0689-.1367.13-.1953.1846q-.222.0219-.4468.022t-.4468-.0074Z" fill="#e6007e"/><path d="M224.0744,134.3376l-.022-.0147v-.0444q.1033-.1179.2139-.24a1.0223,1.0223,0,0,0,.1772-.27l3.7432-7.8774a1.1882,1.1882,0,0,0-.14-.207l-.1626-.1919v-.0074l.0225-.0219h1.1958l.03.0219,3.3369,7.708a4.725,4.725,0,0,0,.6865,1.1l.0152.0445a.0576.0576,0,0,0-.0225.0073.056.056,0,0,1-.022.0073q-.3764,0-.7382-.0112t-.7383-.0034q-.0155-.2586-.0445-.5059a1.6947,1.6947,0,0,0-.1328-.4834l-2.0376-4.7031h-2.09l-2.2813,4.8877a2.67,2.67,0,0,0-.1069.2617.8485.8485,0,0,0-.0479.2847.8717.8717,0,0,0,.0074.1142,1.0412,1.0412,0,0,0,.0219.1143l-.0073.03-.0146.0146Zm5.2051-6.0689q-.2139-.48-.4576-.9565a4.8,4.8,0,0,1-.3769-.9927l-.9375,1.9492Z" fill="#e6007e"/><path d="M242.5172,133.6657a2.0125,2.0125,0,0,0,.0259.3213.9424.9424,0,0,0,.107.3061v.0445a.056.056,0,0,0-.022.0073.056.056,0,0,1-.022.0073h-1.1225a.0555.0555,0,0,1-.022-.0073.0585.0585,0,0,0-.022-.0073v-.0445a1.2323,1.2323,0,0,0,.1621-.6274V129.28a4.6651,4.6651,0,0,0-.0293-.52,1.818,1.818,0,0,0-.1328-.5059v-.044a2.0092,2.0092,0,0,1,.499-.1406q.2563-.0366.5127-.0957l.044.0147.0219.0293.0074.436a2.0986,2.0986,0,0,1,.5869-.395,1.6657,1.6657,0,0,1,.69-.1441,2.0529,2.0529,0,0,1,.8272.1734,1.7736,1.7736,0,0,1,.6718.5058,1.9284,1.9284,0,0,1,.834-.5244,3.2351,3.2351,0,0,1,.982-.1548,2.1042,2.1042,0,0,1,.82.1514,1.688,1.688,0,0,1,.6089.4243,1.8984,1.8984,0,0,1,.38.65,2.45,2.45,0,0,1,.1329.8194v3.3964c0,.1475.0039.2955.0112.4429a2.3676,2.3676,0,0,0,.0625.4356l-.0073.03-.0445.0293a2.6387,2.6387,0,0,0-.5127.0811q-.2549.0666-.5058.1479l-.03-.0073-.0147-.0444a3.8587,3.8587,0,0,0,.107-.7271q.0183-.3654.0185-.7348v-3.0493a3.99,3.99,0,0,0-.0405-.5537,1.8668,1.8668,0,0,0-.1543-.5318,1.0809,1.0809,0,0,0-.32-.4023.8589.8589,0,0,0-.5376-.1587,2.43,2.43,0,0,0-.8574.1553,2.0753,2.0753,0,0,0-.7329.4648,2.17,2.17,0,0,1,.1626.4985,2.75,2.75,0,0,1,.0512.5279v3.7065a2.0125,2.0125,0,0,0,.0259.3213.8686.8686,0,0,0,.1147.3061v.0445l-.0371.0146h-1.144l-.03-.0146v-.0445a1.2019,1.2019,0,0,0,.1182-.3061,1.4265,1.4265,0,0,0,.0366-.3213v-3.7065a4.4764,4.4764,0,0,0-.0366-.5572,1.7951,1.7951,0,0,0-.1485-.5317,1.0458,1.0458,0,0,0-.3183-.3989.8811.8811,0,0,0-.5484-.1587,1.0678,1.0678,0,0,0-.333.0556,1.9453,1.9453,0,0,0-.3335.1441,2.3738,2.3738,0,0,0-.3076.1992,2.6532,2.6532,0,0,0-.2554.2212Z" fill="#e6007e"/><path d="M261.0343,127.9142a3.2117,3.2117,0,0,1,1.2808.2583,3.4075,3.4075,0,0,1,1.0557.7051,3.3132,3.3132,0,0,1,.7163,1.0484,3.26,3.26,0,0,1,0,2.562,3.3823,3.3823,0,0,1-.7124,1.0522,3.3158,3.3158,0,0,1-1.0557.7085,3.3178,3.3178,0,0,1-2.5693,0,3.3506,3.3506,0,0,1-1.7759-1.7568,3.2784,3.2784,0,0,1,0-2.5694,3.32,3.32,0,0,1,.7163-1.0449,3.3961,3.3961,0,0,1,1.06-.7051A3.2352,3.2352,0,0,1,261.0343,127.9142Zm0,.4283a1.8042,1.8042,0,0,0-.9746.2661,2.4645,2.4645,0,0,0-.72.68,3.1511,3.1511,0,0,0-.4429.9238,3.3675,3.3675,0,0,0,0,1.9961,3.2543,3.2543,0,0,0,.44.9277,2.3505,2.3505,0,0,0,.7163.68,1.8418,1.8418,0,0,0,.9819.2627,1.8061,1.8061,0,0,0,.9746-.2666,2.4627,2.4627,0,0,0,.72-.68,3.22,3.22,0,0,0,.4467-.9243,3.2948,3.2948,0,0,0,0-1.9961,3.221,3.221,0,0,0-.4467-.9238,2.4631,2.4631,0,0,0-.72-.68A1.8049,1.8049,0,0,0,261.0343,128.3425Z" fill="#e6007e"/><path d="M273.9845,133.7248a1.169,1.169,0,0,0,.14.5683v.0445a.06.06,0,0,0-.0225.0073.056.056,0,0,1-.022.0073h-1.1367a.0545.0545,0,0,1-.0224-.0073.056.056,0,0,0-.022-.0073v-.0445a1.0131,1.0131,0,0,0,.17-.5683V129.339a4.3138,4.3138,0,0,0-.0332-.5317,1.92,1.92,0,0,0-.1367-.5093v-.0146l.0444-.0445.9888-.2065.0371.0147a2.6935,2.6935,0,0,1,.0151.2807v.28q.1179-.0887.2657-.188c.0981-.0669.1992-.1279.3027-.1846a2.2464,2.2464,0,0,1,.3174-.144.9217.9217,0,0,1,.3174-.0591,1.4044,1.4044,0,0,1,.5019.0923,1.03,1.03,0,0,1,.4136.2842l.0146.0444-.0146.022-.5982.3618h-.059a.8639.8639,0,0,0-.2105-.1773.5078.5078,0,0,0-.269-.0737.7274.7274,0,0,0-.2808.0552,1.5286,1.5286,0,0,0-.2549.1367,2.3332,2.3332,0,0,0-.2324.1773q-.1105.0959-.2139.1845Z" fill="#e6007e"/><path d="M301.1169,128.0915l.0224-.0444.0293-.0147h.79l.0371.022a.9286.9286,0,0,1-.1812.3579,1.742,1.742,0,0,0-.2178.3437l-3.1821,6.3052q-.1326.2578-.3061.5464a6.3719,6.3719,0,0,1-.8457,1.1035,3.554,3.554,0,0,1-.5206.45,2.5773,2.5773,0,0,1-.5795.31,1.7521,1.7521,0,0,1-.6275.1147,2.1929,2.1929,0,0,1-.58-.0776,1.7121,1.7121,0,0,1-.5278-.2471l-.0147-.0444a1.5007,1.5007,0,0,1,.31-.251q.17-.1039.332-.2144h.03a1.7926,1.7926,0,0,0,.9155.2437.9722.9722,0,0,0,.5206-.1587,2.3461,2.3461,0,0,0,.4873-.4136,4.65,4.65,0,0,0,.4428-.5722q.21-.3173.3877-.6421t.3174-.62q.14-.2952.2437-.502l-2.6578-5.9805v-.0517l.0367-.022h1.2256l.0224.0147h.0147a.1247.1247,0,0,1,.0073.059v.1109c0,.0395-.0015.0771-.0039.1142s-.0034.0606-.0034.07a1.1985,1.1985,0,0,0,.0185.21.942.942,0,0,0,.0625.21l1.8682,4.0679,2.03-4.0752a1.0822,1.0822,0,0,0,.1181-.5024A1.0988,1.0988,0,0,0,301.1169,128.0915Z" fill="#e6007e"/><path d="M322.0705,134.3522a.12.12,0,0,1-.0518-.0146v-.0445a2.1271,2.1271,0,0,1,.0776-.5537,2.2006,2.2006,0,0,0,.0777-.5756v-6.5123a3.0219,3.0219,0,0,0-.0518-.5649q-.0519-.2688-.1035-.55v-.0518l.0518-.0219h.5092a4.9628,4.9628,0,0,0,.6719-.0454q.3326-.0454.6685-.0953t.6679-.0947a4.9532,4.9532,0,0,1,.6719-.0454,5.1548,5.1548,0,0,1,1.1963.1406,5.39,5.39,0,0,1,1.1255.4024,5,5,0,0,1,.9932.643,4.3473,4.3473,0,0,1,.79.8575,4.0159,4.0159,0,0,1,.5205,1.0454,3.8331,3.8331,0,0,1,.1885,1.2114,5.0033,5.0033,0,0,1-.3545,1.8809,4.8906,4.8906,0,0,1-.9819,1.5478,4.6587,4.6587,0,0,1-1.4878,1.0532,4.5036,4.5036,0,0,1-1.8716.3877Zm1.019-.8047a4.0407,4.0407,0,0,0,.9385.3394,4.4382,4.4382,0,0,0,.9907.1108,3.1846,3.1846,0,0,0,1.0386-.1733,4.1027,4.1027,0,0,0,.9575-.4761,4.64,4.64,0,0,0,.8276-.7129,4.8,4.8,0,0,0,.647-.8857,4.6725,4.6725,0,0,0,.4214-.9966,3.695,3.695,0,0,0,.1514-1.0376,4.4241,4.4241,0,0,0-.3179-1.72,3.6919,3.6919,0,0,0-.8872-1.292,3.8536,3.8536,0,0,0-1.3565-.812,5.11,5.11,0,0,0-1.726-.2808,3.5208,3.5208,0,0,0-.8614.107,6.2857,6.2857,0,0,0-.8237.2695Z" fill="#e6007e"/><path d="M339.6867,134.2931v.0445a.056.056,0,0,0-.022.0073.06.06,0,0,1-.0225.0073H338.52l-.0518-.0293a.33.33,0,0,0,.0811-.122.99.99,0,0,0,.0591-.1846,1.8294,1.8294,0,0,0,.0332-.1958,1.4346,1.4346,0,0,0,.0112-.1548V129.339a4.3138,4.3138,0,0,0-.0332-.5317,1.9014,1.9014,0,0,0-.1367-.5093v-.0293l.0371-.03.9746-.2065.0517.0147V130.72q0,.5091.0035,1.0039t.0039.9009v1.041a1.4265,1.4265,0,0,0,.0366.3213A2.1158,2.1158,0,0,0,339.6867,134.2931Zm-.6426-8.1582a.4287.4287,0,0,1,.3213.1329.4721.4721,0,0,1,0,.6494.4452.4452,0,0,1-.6387-.0034.4551.4551,0,0,1,0-.6426A.4286.4286,0,0,1,339.0441,126.1349Z" fill="#e6007e"/><path d="M349.5285,133.6657a2.0125,2.0125,0,0,0,.0259.3213.94.94,0,0,0,.1069.3061v.0445a.056.056,0,0,0-.022.0073.0555.0555,0,0,1-.022.0073h-1.1225a.056.056,0,0,1-.022-.0073.0585.0585,0,0,0-.022-.0073v-.0445a1.2313,1.2313,0,0,0,.1621-.6274V129.28a4.6889,4.6889,0,0,0-.0292-.52,1.8217,1.8217,0,0,0-.1329-.5059v-.044a2.0111,2.0111,0,0,1,.4991-.1406q.2556-.0366.5122-.0957l.0444.0147.022.0293.0088.436a2.4753,2.4753,0,0,1,.917-.4248,4.4575,4.4575,0,0,1,1.0058-.1143,2.0484,2.0484,0,0,1,.8169.1548,1.76,1.76,0,0,1,.6065.4248,1.8146,1.8146,0,0,1,.3769.646,2.5015,2.5015,0,0,1,.1294.8194v3.3964c0,.1475.0039.2955.0112.4429a2.3848,2.3848,0,0,0,.0625.4356.1773.1773,0,0,1-.0439.059,2.6815,2.6815,0,0,0-.5171.0811q-.2563.0666-.502.1479l-.0517-.0073-.0073-.0444a2.9938,2.9938,0,0,0,.1142-.668q.019-.3362.0186-.6758v-3.1674a2.8985,2.8985,0,0,0-.063-.6055,1.5956,1.5956,0,0,0-.2109-.5278,1.1173,1.1173,0,0,0-.3921-.3726,1.1861,1.1861,0,0,0-.6-.1406,2.953,2.953,0,0,0-.9214.144,1.6188,1.6188,0,0,0-.7588.5352Z" fill="#e6007e"/><path d="M362.9875,130.1144a4.1357,4.1357,0,0,0-.1548.6494,4.2929,4.2929,0,0,0-.0518.6646,3.3334,3.3334,0,0,0,.1919,1.1851,2.1665,2.1665,0,0,0,.5576.8418,2.3345,2.3345,0,0,0,.89.5019,3.8986,3.8986,0,0,0,1.1811.166,2.8247,2.8247,0,0,0,.8677-.1362,3.5454,3.5454,0,0,0,.8008-.3731,3.029,3.029,0,0,1-1.0889.6978,3.7734,3.7734,0,0,1-1.2807.21,3.2253,3.2253,0,0,1-1.2481-.2329,2.7222,2.7222,0,0,1-.9521-.646,2.8748,2.8748,0,0,1-.6055-.9853,3.5367,3.5367,0,0,1-.2144-1.2515,3.4275,3.4275,0,0,1,.251-1.2846,3.8075,3.8075,0,0,1,.6865-1.1187,3.4381,3.4381,0,0,1,1.0264-.79,2.79,2.79,0,0,1,1.2774-.2989,2.7313,2.7313,0,0,1,.9121.1548,2.4582,2.4582,0,0,1,.7788.4434,2.1778,2.1778,0,0,1,.5424.6938,2.0021,2.0021,0,0,1,.2032.9082Zm3.5957-.3764a2.2152,2.2152,0,0,0-.1328-.5948,1.3979,1.3979,0,0,0-.2842-.4614,1.248,1.248,0,0,0-.4434-.2988,1.58,1.58,0,0,0-.6015-.1069,1.8528,1.8528,0,0,0-.6534.1142,2.0969,2.0969,0,0,0-.561.314,2.4557,2.4557,0,0,0-.4541.4648,2.8726,2.8726,0,0,0-.3325.5689Z" fill="#e6007e"/><path d="M377.112,133.7248a1.17,1.17,0,0,0,.14.5683v.0445a.06.06,0,0,0-.0225.0073.0551.0551,0,0,1-.0219.0073H376.071a.0553.0553,0,0,1-.0225-.0073.056.056,0,0,0-.022-.0073v-.0445a1.0131,1.0131,0,0,0,.17-.5683V129.339a4.3138,4.3138,0,0,0-.0332-.5317,1.9126,1.9126,0,0,0-.1367-.5093v-.0146l.0445-.0445.9887-.2065.0371.0147a2.6936,2.6936,0,0,1,.0152.2807v.28q.1179-.0887.2656-.188c.0981-.0669.1992-.1279.3027-.1846a2.2464,2.2464,0,0,1,.3174-.144.9221.9221,0,0,1,.3174-.0591,1.4049,1.4049,0,0,1,.502.0923,1.0306,1.0306,0,0,1,.4135.2842l.0147.0444-.0147.022-.5981.3618h-.0591a.8639.8639,0,0,0-.21-.1773.5075.5075,0,0,0-.269-.0737.7277.7277,0,0,0-.2808.0552,1.5277,1.5277,0,0,0-.2548.1367,2.3344,2.3344,0,0,0-.2325.1773q-.1106.0959-.2138.1845Z" fill="#e6007e"/><path d="M390.675,127.9142a3.2112,3.2112,0,0,1,1.2807.2583,3.4063,3.4063,0,0,1,1.0557.7051,3.3132,3.3132,0,0,1,.7163,1.0484,3.26,3.26,0,0,1,0,2.562,3.3823,3.3823,0,0,1-.7124,1.0522,3.3158,3.3158,0,0,1-1.0557.7085,3.3178,3.3178,0,0,1-2.5693,0,3.3506,3.3506,0,0,1-1.7759-1.7568,3.2784,3.2784,0,0,1,0-2.5694,3.32,3.32,0,0,1,.7163-1.0449,3.3973,3.3973,0,0,1,1.06-.7051A3.2354,3.2354,0,0,1,390.675,127.9142Zm0,.4283a1.8037,1.8037,0,0,0-.9746.2661,2.4648,2.4648,0,0,0-.72.68,3.1484,3.1484,0,0,0-.4428.9238,3.3653,3.3653,0,0,0,0,1.9961,3.2514,3.2514,0,0,0,.4394.9277,2.3505,2.3505,0,0,0,.7163.68,1.842,1.842,0,0,0,.982.2627,1.8066,1.8066,0,0,0,.9746-.2666,2.4623,2.4623,0,0,0,.72-.68,3.22,3.22,0,0,0,.4468-.9243,3.2948,3.2948,0,0,0,0-1.9961,3.2212,3.2212,0,0,0-.4468-.9238,2.4627,2.4627,0,0,0-.72-.68A1.8054,1.8054,0,0,0,390.675,128.3425Z" fill="#e6007e"/></svg>